<svg xmlns="http://www.w3.org/2000/svg" xmlns:xlink="http://www.w3.org/1999/xlink" xmlns:lucid="lucid" width="2002" height="1254.54"><g transform="translate(-58.99999993428648 301.0000000060633)" lucid:page-tab-id="0_0"><path d="M0-500h2500v1500H0z" fill="#fff"/><path d="M340-294a6 6 0 0 1 6-6h648a6 6 0 0 1 6 6V912.94a6 6 0 0 1-6 6H346a6 6 0 0 1-6-6z" fill-opacity="0"/><path d="M365.64-300h19.63m9.82 0h19.63m9.8 0h19.65m9.82 0h19.64m9.8 0h19.65m9.8 0h19.64m9.82 0H562m9.82 0h19.63m9.82 0h19.64m9.83 0h19.63m9.82 0h19.64m9.82 0h19.63m9.82 0h19.63m9.8 0h19.65m9.82 0h19.64m9.82 0h19.63m9.8 0h19.64m9.82 0H886m9.82 0h19.63m9.82 0h19.64m9.83 0h19.63m9.82 0H994a6 6 0 0 1 6 6v10.06m0 10.06v20.1m0 10.07v20.1m0 10.06v20.12m0 10.06v20.1m0 10.07v20.13m0 10.05v20.12m0 10.06v20.1m0 10.07v20.12m0 10.05v20.12m0 10.06v20.1m0 10.07v20.12m0 10.05v20.12m0 10.06v20.1m0 10.07v20.12m0 10.04v20.12m0 10.06v20.1m0 10.07V229m0 10.06v20.12m0 10.06v20.1m0 10.07v20.13m0 10.05v20.12m0 10.06v20.1m0 10.07v20.12m0 10.05v20.12m0 10.06v20.1m0 10.07v20.12m0 10.05v20.12m0 10.06v20.1m0 10.07v20.12m0 10.04v20.12m0 10.06v20.1m0 10.07v20.1m0 10.06v20.12m0 10.06v20.1m0 10.07v20.13m0 10.05v20.12m0 10.06v20.1m0 10.07v20.12m0 10.05v20.12m0 10.06v10.06a6 6 0 0 1-6 6h-9.82m-9.82 0h-19.63m-9.82 0h-19.63m-9.8 0H895.8m-9.82 0h-19.64m-9.82 0H836.9m-9.8 0h-19.64m-9.82 0H778m-9.82 0h-19.63m-9.82 0H719.1m-9.83 0h-19.63m-9.82 0h-19.64m-9.82 0h-19.63m-9.82 0h-19.63m-9.8 0H571.8m-9.82 0h-19.64m-9.82 0H512.9m-9.8 0h-19.65m-9.8 0H454m-9.82 0h-19.63m-9.82 0H395.1m-9.83 0h-19.63m-9.82 0H346a6 6 0 0 1-6-6v-10.06m0-10.06V872.7m0-10.05v-20.12m0-10.06v-20.1m0-10.07v-20.12m0-10.05V752m0-10.05v-20.1m0-10.07v-20.12m0-10.05v-20.1m0-10.07v-20.1m0-10.07v-20.12m0-10.05v-20.13m0-10.06v-20.1m0-10.06v-20.12m0-10.05v-20.12m0-10.06v-20.12m0-10.06V420.1m0-10.05v-20.12m0-10.06v-20.1m0-10.07v-20.12m0-10.05V299.4m0-10.05v-20.1m0-10.07v-20.12m0-10.06v-20.1m0-10.07v-20.1m0-10.07v-20.12m0-10.05v-20.13m0-10.06V88.2m0-10.06V58.02m0-10.05V27.85m0-10.06V-2.33m0-10.06V-32.5m0-10.05v-20.12m0-10.06v-20.1m0-10.07v-20.12m0-10.05v-20.12m0-10.05v-20.1m0-10.07v-20.12m0-10.06v-20.1m0-10.07v-20.1m0-10.07V-294a6 6 0 0 1 6-6h9.82" stroke="#000" stroke-width="2" fill="none"/><use xlink:href="#a" transform="matrix(1,0,0,1,352,-288) translate(0 21.52777777777778)"/><use xlink:href="#b" transform="matrix(1,0,0,1,352,-288) translate(46.65798611111111 21.52777777777778)"/><path d="M1079 206a6 6 0 0 1 6-6h626a6 6 0 0 1 6 6v706.94a6 6 0 0 1-6 6h-626a6 6 0 0 1-6-6z" fill="#fcfcca"/><path d="M1104.87 200h19.88m9.93 0h19.88m9.93 0h19.87m9.93 0h19.88m9.93 0H1244m9.94 0h19.87m9.93 0h19.87m9.94 0h19.87m9.95 0h19.87m9.94 0h19.87m9.94 0h19.87m9.94 0h19.87m9.94 0h19.86m9.94 0h19.87m9.94 0h19.88m9.94 0h19.87m9.93 0h19.87m9.93 0h19.88m9.94 0h19.88m9.93 0h19.88m9.93 0h9.94a6 6 0 0 1 6 6v9.82m0 9.82v19.63m0 9.82v19.63m0 9.82v19.63m0 9.82v19.64m0 9.82v19.64m0 9.8v19.65m0 9.82V422m0 9.83v19.63m0 9.82v19.64m0 9.82v19.63m0 9.82v19.63m0 9.82v19.64m0 9.8v19.64m0 9.82v19.64m0 9.82v19.63m0 9.82v19.64m0 9.83v19.64m0 9.8v19.65m0 9.82v19.64m0 9.8v19.65m0 9.82v19.64m0 9.8v19.64m0 9.82v19.64m0 9.82v9.82a6 6 0 0 1-6 6h-9.94m-9.93 0h-19.88m-9.93 0h-19.88m-9.93 0h-19.87m-9.93 0h-19.87m-9.94 0H1552m-9.94 0h-19.87m-9.93 0h-19.87m-9.94 0h-19.87m-9.95 0h-19.87m-9.94 0h-19.87m-9.94 0h-19.87m-9.94 0h-19.87m-9.94 0h-19.86m-9.94 0h-19.87m-9.94 0h-19.88m-9.94 0h-19.87m-9.92 0h-19.88m-9.93 0h-19.88m-9.94 0h-19.88m-9.93 0h-19.88m-9.93 0H1085a6 6 0 0 1-6-6v-9.82m0-9.82v-19.64m0-9.82V844.2m0-9.8v-19.65m0-9.82V785.3m0-9.82v-19.64m0-9.82v-19.64m0-9.8v-19.65m0-9.82v-19.63m0-9.82v-19.63m0-9.82v-19.64m0-9.82V579.1m0-9.8v-19.65m0-9.82V520.2m0-9.83v-19.63m0-9.82v-19.64m0-9.82v-19.63m0-9.82v-19.63m0-9.82v-19.63m0-9.82v-19.64m0-9.82V314m0-9.8v-19.65m0-9.82V255.1m0-9.83v-19.63m0-9.82V206a6 6 0 0 1 6-6h9.94" stroke="#000" stroke-width="2" fill="none"/><use xlink:href="#a" transform="matrix(1,0,0,1,1091.0000499999987,212) translate(0 21.52777777777778)"/><use xlink:href="#c" transform="matrix(1,0,0,1,1091.0000499999987,212) translate(46.65798611111111 21.52777777777778)"/><path d="M1098 424.94a6 6 0 0 1 6-6h588a6 6 0 0 1 6 6v288a6 6 0 0 1-6 6h-588a6 6 0 0 1-6-6z" fill="#c3f7c8"/><path d="M1123.6 418.94h19.6m9.8 0h19.6m9.8 0h19.6m9.8 0h19.6m9.8 0h19.6m9.8 0h19.6m9.8 0h19.6m9.8 0h19.6m9.8 0h19.6m9.8 0h19.6m9.8 0h19.6m9.8 0h19.6m9.8 0h19.6m9.8 0h19.6m9.8 0h19.6m9.8 0h19.6m9.8 0h19.6m9.8 0h19.6m9.8 0h19.6m9.8 0h9.8a6 6 0 0 1 6 6v9.6m0 9.6v19.2m0 9.6v19.2m0 9.6v19.2m0 9.6v19.2m0 9.6v19.2m0 9.6v19.2m0 9.6v19.2m0 9.6v19.2m0 9.6v19.2m0 9.6v9.6a6 6 0 0 1-6 6h-9.8m-9.8 0h-19.6m-9.8 0h-19.6m-9.8 0H1594m-9.8 0h-19.6m-9.8 0h-19.6m-9.8 0h-19.6m-9.8 0h-19.6m-9.8 0H1447m-9.8 0h-19.6m-9.8 0h-19.6m-9.8 0h-19.6m-9.8 0h-19.6m-9.8 0H1300m-9.8 0h-19.6m-9.8 0h-19.6m-9.8 0h-19.6m-9.8 0h-19.6m-9.8 0H1153m-9.8 0h-19.6m-9.8 0h-9.8a6 6 0 0 1-6-6v-9.6m0-9.6v-19.2m0-9.6v-19.2m0-9.6v-19.2m0-9.6v-19.2m0-9.6v-19.2m0-9.6v-19.2m0-9.6v-19.2m0-9.6v-19.2m0-9.6v-19.2m0-9.6v-9.6a6 6 0 0 1 6-6h9.8" stroke="#000" stroke-width="2" fill="none"/><use xlink:href="#d" transform="matrix(1,0,0,1,1110.000099999998,430.93552187500006) translate(0 21.52777777777778)"/><use xlink:href="#e" transform="matrix(1,0,0,1,1110.000099999998,430.93552187500006) translate(117.55642361111111 21.52777777777778)"/><path d="M360-226a6 6 0 0 1 6-6h268a6 6 0 0 1 6 6V53.8a6 6 0 0 1-6 6H366a6 6 0 0 1-6-6z" fill-opacity="0"/><path d="M385.85-232h19.85m9.93 0h19.85m9.93 0h19.86m9.93 0h19.84m9.92 0h19.86m9.92 0h19.85m9.92 0h19.85m9.93 0h19.85m9.92 0H634a6 6 0 0 1 6 6v10.36m0 10.36v20.73m0 10.36v20.74m0 10.36v20.73m0 10.36v20.7m0 10.38v20.72m0 10.36v20.73m0 10.35V1.98m0 10.36v20.72m0 10.37V53.8a6 6 0 0 1-6 6h-9.93m-9.92 0H594.3m-9.93 0h-19.85m-9.93 0h-19.86m-9.92 0h-19.86m-9.92 0h-19.86m-9.92 0H445.4m-9.92 0h-19.85m-9.93 0h-19.85m-9.92 0H366a6 6 0 0 1-6-6V43.42m0-10.37V12.34m0-10.36v-20.73m0-10.36v-20.74m0-10.36v-20.72m0-10.37V-112m0-10.37v-20.73m0-10.36v-20.73m0-10.35v-20.72m0-10.37V-226a6 6 0 0 1 6-6h9.93" stroke="#000" stroke-width="2" fill="none"/><use xlink:href="#f" transform="matrix(1,0,0,1,372,-220) translate(0 21.52777777777778)"/><use xlink:href="#g" transform="matrix(1,0,0,1,372,-220) translate(64.2578125 21.52777777777778)"/><use xlink:href="#e" transform="matrix(1,0,0,1,372,-220) translate(0 53.79340277777778)"/><path d="M680 66a6 6 0 0 1 6-6h268a6 6 0 0 1 6 6v279.8a6 6 0 0 1-6 6H686a6 6 0 0 1-6-6z" fill="#fcfcca"/><path d="M705.85 60h19.85m9.93 0h19.85m9.93 0h19.86m9.92 0h19.86m9.92 0h19.86m9.92 0h19.85m9.92 0h19.85m9.93 0h19.85m9.92 0H954a6 6 0 0 1 6 6v10.36m0 10.36v20.73m0 10.36v20.74m0 10.36v20.73m0 10.36v20.7m0 10.38v20.72m0 10.36v20.73m0 10.35v20.73m0 10.36v20.73m0 10.36v10.36a6 6 0 0 1-6 6h-9.93m-9.92 0H914.3m-9.93 0h-19.85m-9.93 0h-19.86m-9.92 0h-19.86m-9.92 0h-19.86m-9.92 0H765.4m-9.92 0h-19.85m-9.93 0h-19.85m-9.92 0H686a6 6 0 0 1-6-6v-10.37m0-10.37v-20.72m0-10.36v-20.73m0-10.36v-20.74m0-10.36v-20.72m0-10.37V180m0-10.37V148.9m0-10.36V117.8m0-10.35V86.72m0-10.36V66a6 6 0 0 1 6-6h9.93" stroke="#000" stroke-width="2" fill="none"/><use xlink:href="#h" transform="matrix(1,0,0,1,691.9999999999999,72) translate(0 21.52777777777778)"/><use xlink:href="#e" transform="matrix(1,0,0,1,691.9999999999999,72) translate(96.50607638888889 21.52777777777778)"/><path d="M1080-114a6 6 0 0 1 6-6h288a6 6 0 0 1 6 6v228a6 6 0 0 1-6 6h-288a6 6 0 0 1-6-6z" fill="#fff3d9"/><path d="M1105.2-120h19.2m9.6 0h19.2m9.6 0h19.2m9.6 0h19.2m9.6 0h19.2m9.6 0h19.2m9.6 0h19.2m9.6 0h19.2m9.6 0h19.2m9.6 0h9.6a6 6 0 0 1 6 6v9.5m0 9.5v19m0 9.5v19m0 9.5v19m0 9.5v19m0 9.5v19m0 9.5v19m0 9.5v19m0 9.5v9.5a6 6 0 0 1-6 6h-9.6m-9.6 0h-19.2m-9.6 0h-19.2m-9.6 0H1278m-9.6 0h-19.2m-9.6 0h-19.2m-9.6 0h-19.2m-9.6 0h-19.2m-9.6 0H1134m-9.6 0h-19.2m-9.6 0h-9.6a6 6 0 0 1-6-6v-9.5m0-9.5V76m0-9.5v-19m0-9.5V19m0-9.5v-19m0-9.5v-19m0-9.5v-19m0-9.5v-19m0-9.5v-9.5a6 6 0 0 1 6-6h9.6" stroke="#000" stroke-width="2" fill="none"/><use xlink:href="#i" transform="matrix(1,0,0,1,1092,-108) translate(0 21.52777777777778)"/><use xlink:href="#j" transform="matrix(1,0,0,1,1092,-108) translate(46.65798611111111 21.52777777777778)"/><path d="M681-194a6 6 0 0 1 6-6h268a6 6 0 0 1 6 6V54a6 6 0 0 1-6 6H687a6 6 0 0 1-6-6z" fill="#fff3d9"/><path d="M706.85-200h19.85m9.93 0h19.85m9.93 0h19.86m9.92 0h19.86m9.92 0h19.86m9.92 0h19.85m9.92 0h19.85m9.93 0h19.85m9.92 0H955a6 6 0 0 1 6 6v10.33m0 10.34v20.66m0 10.34v20.66m0 10.34v20.66m0 10.34v20.66m0 10.34v20.66m0 10.34V2.33m0 10.34v20.66m0 10.34V54a6 6 0 0 1-6 6h-9.93m-9.92 0H915.3m-9.93 0h-19.85m-9.93 0h-19.86m-9.92 0h-19.86m-9.92 0h-19.86m-9.92 0H766.4m-9.92 0h-19.85m-9.93 0h-19.85m-9.92 0H687a6 6 0 0 1-6-6V43.67m0-10.34V12.67m0-10.34v-20.66m0-10.34v-20.66m0-10.34v-20.66m0-10.34v-20.66m0-10.34v-20.66m0-10.34v-20.66m0-10.34V-194a6 6 0 0 1 6-6h9.93" stroke="#000" stroke-width="2" fill="none"/><use xlink:href="#k" transform="matrix(1,0,0,1,692.9999500000001,-188) translate(0 21.52777777777778)"/><use xlink:href="#e" transform="matrix(1,0,0,1,692.9999500000001,-188) translate(59.99348958333333 21.52777777777778)"/><path d="M360 357.8a6 6 0 0 1 6-6h588a6 6 0 0 1 6 6V714a6 6 0 0 1-6 6H366a6 6 0 0 1-6-6z" fill-opacity="0"/><path d="M385.6 351.8h19.6m9.8 0h19.6m9.8 0H464m9.8 0h19.6m9.8 0h19.6m9.8 0h19.6m9.8 0h19.6m9.8 0H611m9.8 0h19.6m9.8 0h19.6m9.8 0h19.6m9.8 0h19.6m9.8 0H758m9.8 0h19.6m9.8 0h19.6m9.8 0h19.6m9.8 0h19.6m9.8 0H905m9.8 0h19.6m9.8 0h9.8a6 6 0 0 1 6 6v9.88m0 9.9v19.8m0 9.88v19.8m0 9.9v19.78m0 9.9v19.78m0 9.9v19.8m0 9.88v19.8m0 9.88v19.8m0 9.9v19.78m0 9.9v19.78m0 9.9v19.8m0 9.88v19.8m0 9.88v9.9a6 6 0 0 1-6 6h-9.8m-9.8 0h-19.6m-9.8 0h-19.6m-9.8 0H856m-9.8 0h-19.6m-9.8 0h-19.6m-9.8 0h-19.6m-9.8 0h-19.6m-9.8 0H709m-9.8 0h-19.6m-9.8 0h-19.6m-9.8 0h-19.6m-9.8 0h-19.6m-9.8 0H562m-9.8 0h-19.6m-9.8 0h-19.6m-9.8 0h-19.6m-9.8 0h-19.6m-9.8 0H415m-9.8 0h-19.6m-9.8 0H366a6 6 0 0 1-6-6v-9.9m0-9.9v-19.78m0-9.9v-19.78m0-9.9v-19.8m0-9.88v-19.8m0-9.9V555.7m0-9.9V526m0-9.9v-19.78m0-9.9v-19.8m0-9.88v-19.8m0-9.9v-19.78m0-9.9V377.6m0-9.9v-9.9a6 6 0 0 1 6-6h9.8" stroke="#000" stroke-width="2" fill="none"/><use xlink:href="#l" transform="matrix(1,0,0,1,372,363.7903895833333) translate(0 21.52777777777778)"/><use xlink:href="#e" transform="matrix(1,0,0,1,372,363.7903895833333) translate(57.37847222222222 21.52777777777778)"/><path d="M360 66a6 6 0 0 1 6-6h268a6 6 0 0 1 6 6v279.8a6 6 0 0 1-6 6H366a6 6 0 0 1-6-6z" fill-opacity="0"/><path d="M385.85 60h19.85m9.93 0h19.85m9.93 0h19.86m9.93 0h19.84m9.92 0h19.86m9.92 0h19.85m9.92 0h19.85m9.93 0h19.85m9.92 0H634a6 6 0 0 1 6 6v10.36m0 10.36v20.73m0 10.36v20.74m0 10.36v20.73m0 10.36v20.7m0 10.38v20.72m0 10.36v20.73m0 10.35v20.73m0 10.36v20.73m0 10.36v10.36a6 6 0 0 1-6 6h-9.93m-9.92 0H594.3m-9.93 0h-19.85m-9.93 0h-19.86m-9.92 0h-19.86m-9.92 0h-19.86m-9.92 0H445.4m-9.92 0h-19.85m-9.93 0h-19.85m-9.92 0H366a6 6 0 0 1-6-6v-10.37m0-10.37v-20.72m0-10.36v-20.73m0-10.36v-20.74m0-10.36v-20.72m0-10.37V180m0-10.37V148.9m0-10.36V117.8m0-10.35V86.72m0-10.36V66a6 6 0 0 1 6-6h9.93" stroke="#000" stroke-width="2" fill="none"/><use xlink:href="#m" transform="matrix(1,0,0,1,372,72) translate(0 21.52777777777778)"/><use xlink:href="#e" transform="matrix(1,0,0,1,372,72) translate(0 53.79340277777778)"/><path d="M360 726a6 6 0 0 1 6-6h588a6 6 0 0 1 6 6v168a6 6 0 0 1-6 6H366a6 6 0 0 1-6-6z" fill-opacity="0"/><path d="M385.6 720h19.6m9.8 0h19.6m9.8 0H464m9.8 0h19.6m9.8 0h19.6m9.8 0h19.6m9.8 0h19.6m9.8 0H611m9.8 0h19.6m9.8 0h19.6m9.8 0h19.6m9.8 0h19.6m9.8 0H758m9.8 0h19.6m9.8 0h19.6m9.8 0h19.6m9.8 0h19.6m9.8 0H905m9.8 0h19.6m9.8 0h9.8a6 6 0 0 1 6 6v9.33m0 9.34v18.66m0 9.34v18.66m0 9.34v18.66m0 9.34v18.66m0 9.34v18.66m0 9.34V894a6 6 0 0 1-6 6h-9.8m-9.8 0h-19.6m-9.8 0h-19.6m-9.8 0H856m-9.8 0h-19.6m-9.8 0h-19.6m-9.8 0h-19.6m-9.8 0h-19.6m-9.8 0H709m-9.8 0h-19.6m-9.8 0h-19.6m-9.8 0h-19.6m-9.8 0h-19.6m-9.8 0H562m-9.8 0h-19.6m-9.8 0h-19.6m-9.8 0h-19.6m-9.8 0h-19.6m-9.8 0H415m-9.8 0h-19.6m-9.8 0H366a6 6 0 0 1-6-6v-9.33m0-9.34v-18.66m0-9.34v-18.66m0-9.34v-18.66m0-9.34v-18.66m0-9.34v-18.66m0-9.34V726a6 6 0 0 1 6-6h9.8" stroke="#000" stroke-width="2" fill="none"/><path d="M380 400a6 6 0 0 1 6-6h168a6 6 0 0 1 6 6v59.8a6 6 0 0 1-6 6H386a6 6 0 0 1-6-6z" stroke="#000" stroke-width="2" fill="#fff"/><use xlink:href="#n" transform="matrix(1,0,0,1,392,406) translate(2.739583333333343 33.52777777777778)"/><use xlink:href="#o" transform="matrix(1,0,0,1,392,406) translate(60.118055555555564 33.52777777777778)"/><path d="M600 506a6 6 0 0 1 6-6h168a6 6 0 0 1 6 6v59.8a6 6 0 0 1-6 6H606a6 6 0 0 1-6-6z" stroke="#000" stroke-width="2" fill="#fff"/><use xlink:href="#p" transform="matrix(1,0,0,1,612,512) translate(52.435763888888886 33.52777777777778)"/><path d="M380 479.82a6 6 0 0 1 6-6h168a6 6 0 0 1 6 6v103.42a6 6 0 0 1-6 6H386a6 6 0 0 1-6-6z" stroke="#000" stroke-width="2" fill="#fff"/><use xlink:href="#q" transform="matrix(1,0,0,1,392,485.8226036458332) translate(14.349826388888886 38.77777777777778)"/><use xlink:href="#r" transform="matrix(1,0,0,1,392,485.8226036458332) translate(71.72829861111111 38.77777777777778)"/><use xlink:href="#s" transform="matrix(1,0,0,1,392,485.8226036458332) translate(58.19205729166667 71.04340277777777)"/><path d="M400-154.9a6 6 0 0 1 6-6h168a6 6 0 0 1 6 6v103.42a6 6 0 0 1-6 6H406a6 6 0 0 1-6-6z" stroke="#000" stroke-width="2" fill="#fc9432"/><use xlink:href="#t" transform="matrix(1,0,0,1,412,-148.90236874999988) translate(15.711588541666664 24.40277777777778)"/><use xlink:href="#u" transform="matrix(1,0,0,1,412,-148.90236874999988) translate(31.42881944444445 56.66840277777778)"/><use xlink:href="#v" transform="matrix(1,0,0,1,412,-148.90236874999988) translate(26.11197916666667 88.93402777777777)"/><path d="M380 629.23a6 6 0 0 1 6-6h168a6 6 0 0 1 6 6v59.8a6 6 0 0 1-6 6H386a6 6 0 0 1-6-6z" stroke="#000" stroke-width="2" fill="#fff"/><use xlink:href="#w" transform="matrix(1,0,0,1,392,635.2257424479167) translate(15.711588541666664 33.52777777777778)"/><path d="M380 766a6 6 0 0 1 6-6h148a6 6 0 0 1 6 6v108a6 6 0 0 1-6 6H386a6 6 0 0 1-6-6z" stroke="#000" stroke-width="2" fill="#fff"/><use xlink:href="#i" transform="matrix(1,0,0,1,392,772) translate(27.364149305555557 39.52777777777778)"/><use xlink:href="#x" transform="matrix(1,0,0,1,392,772) translate(74.02213541666666 39.52777777777778)"/><use xlink:href="#y" transform="matrix(1,0,0,1,392,772) translate(39.68511284722223 71.79340277777777)"/><path d="M580 766a6 6 0 0 1 6-6h148a6 6 0 0 1 6 6v108a6 6 0 0 1-6 6H586a6 6 0 0 1-6-6z" stroke="#000" stroke-width="2" fill="#fff"/><use xlink:href="#i" transform="matrix(1,0,0,1,592,772) translate(27.364149305555557 39.52777777777778)"/><use xlink:href="#x" transform="matrix(1,0,0,1,592,772) translate(74.02213541666666 39.52777777777778)"/><use xlink:href="#y" transform="matrix(1,0,0,1,592,772) translate(39.68511284722223 71.79340277777777)"/><path d="M780 766a6 6 0 0 1 6-6h148a6 6 0 0 1 6 6v108a6 6 0 0 1-6 6H786a6 6 0 0 1-6-6z" stroke="#000" stroke-width="2" fill="#fff"/><use xlink:href="#i" transform="matrix(1,0,0,1,792,772) translate(27.364149305555557 39.52777777777778)"/><use xlink:href="#x" transform="matrix(1,0,0,1,792,772) translate(74.02213541666666 39.52777777777778)"/><use xlink:href="#y" transform="matrix(1,0,0,1,792,772) translate(39.68511284722223 71.79340277777777)"/><path d="M598.5 535.9H586a6 6 0 0 0-6 6V653.1a6 6 0 0 1-6 6h-12.5" stroke="#3a414a" fill="none"/><path d="M599 536.37h-.5v-.95h.5zM561.5 659.6h-.5v-.95h.5zM690.48 694.02l-.08 1-.24.98-.4.94-.52.87-.66.78-.77.66-.86.53-.94.4-1 .23-.98.08h-218l-.88.06-.85.2-.8.34-.75.45-.66.56-.57.65-.45.74-.33.8-.2.84-.07.88v36.6h-.96v-36.64l.08-1 .24-.98.4-.94.52-.87.66-.78.77-.66.86-.53.94-.4 1-.23.98-.08h218l.88-.06.85-.2.8-.34.75-.45.66-.56.57-.65.45-.74.33-.8.2-.84.07-.88v-64.72h.96zm0-86.27h-.96V573.3h.96z" stroke="#3a414a" stroke-width=".05" fill="#3a414a"/><path d="M690.48 573.3h-.96v-.5h.96z" fill="#3a414a"/><path stroke="#3a414a" stroke-width=".05" fill="#3a414a"/><path d="M460 757.38l-4.63-14.26h9.26z" fill="#3a414a"/><path d="M460 758.92l-5.3-16.28h10.6zm-3.98-15.33l3.98 12.25 3.98-12.26zM690.48 694.02l-.08 1-.24.98-.4.94-.52.87-.66.78-.77.66-.86.53-.94.4-1 .23-.98.08h-18l-.88.06-.85.2-.8.34-.75.45-.66.56-.57.65-.45.74-.33.8-.2.84-.07.88v36.6h-.96v-36.64l.08-1 .24-.98.4-.94.52-.87.66-.78.77-.66.86-.53.94-.4 1-.23.98-.08h18l.88-.06.85-.2.8-.34.75-.45.66-.56.57-.65.45-.74.33-.8.2-.84.07-.88v-64.72h.96zm0-86.27h-.96V573.3h.96z" stroke="#3a414a" stroke-width=".05" fill="#3a414a"/><path d="M690.48 573.3h-.96v-.5h.96z" fill="#3a414a"/><path stroke="#3a414a" stroke-width=".05" fill="#3a414a"/><path d="M660 757.38l-4.63-14.26h9.26z" fill="#3a414a"/><path d="M660 758.92l-5.3-16.28h10.6zm-3.98-15.33l3.98 12.25 3.98-12.26zM690.48 693.98l.06.88.2.85.34.8.45.75.56.66.65.57.74.45.8.33.84.2.88.07h158l1 .08.98.24.94.4.87.52.78.66.66.77.53.86.4.94.23 1 .08.98v36.64h-.96v-36.6l-.06-.88-.2-.85-.34-.8-.45-.75-.56-.66-.65-.57-.74-.45-.8-.33-.84-.2-.88-.07h-158l-1-.08-.98-.24-.94-.4-.87-.52-.78-.66-.66-.77-.53-.86-.4-.94-.23-1-.08-.98v-64.76h.96zm0-86.23h-.96V573.3h.96z" stroke="#3a414a" stroke-width=".05" fill="#3a414a"/><path d="M690.48 573.3h-.96v-.5h.96z" fill="#3a414a"/><path stroke="#3a414a" stroke-width=".05" fill="#3a414a"/><path d="M860 757.38l-4.63-14.26h9.26z" fill="#3a414a"/><path d="M860 758.92l-5.3-16.28h10.6zm-3.98-15.33l3.98 12.25 3.98-12.26z" stroke="#3a414a" stroke-width=".05" fill="#3a414a"/><use xlink:href="#z" transform="matrix(1,0,0,1,671.71875,607.7523753987472) translate(0 17.22222222222222)"/><path d="M700 151.27a6 6 0 0 1 6-6h228a6 6 0 0 1 6 6v71.15a6 6 0 0 1-6 6H706a6 6 0 0 1-6-6z" stroke="#000" stroke-width="2" fill="#fff"/><use xlink:href="#A" transform="matrix(1,0,0,1,712,157.26953124999994) translate(62.87196180555556 25.27777777777778)"/><use xlink:href="#B" transform="matrix(1,0,0,1,712,157.26953124999994) translate(7.305555555555557 57.54340277777778)"/><path d="M380 151.27a6 6 0 0 1 6-6h228a6 6 0 0 1 6 6v71.15a6 6 0 0 1-6 6H386a6 6 0 0 1-6-6z" stroke="#000" stroke-width="2" fill="#fff"/><use xlink:href="#C" transform="matrix(1,0,0,1,392,157.26953124999994) translate(48.505642361111114 25.27777777777778)"/><use xlink:href="#B" transform="matrix(1,0,0,1,392,157.26953124999994) translate(7.305555555555557 57.54340277777778)"/><path d="M410 251.27a6 6 0 0 1 6-6h168a6 6 0 0 1 6 6v71.15a6 6 0 0 1-6 6H416a6 6 0 0 1-6-6z" stroke="#000" stroke-width="2" fill="#fff"/><use xlink:href="#C" transform="matrix(1,0,0,1,422,257.26953124999994) translate(18.505642361111114 25.27777777777778)"/><use xlink:href="#D" transform="matrix(1,0,0,1,422,257.26953124999994) translate(18.85828993055557 57.54340277777778)"/><path d="M701-134a6 6 0 0 1 6-6h228a6 6 0 0 1 6 6v71.15a6 6 0 0 1-6 6H707a6 6 0 0 1-6-6z" stroke="#000" stroke-width="2" fill="#fff"/><use xlink:href="#E" transform="matrix(1,0,0,1,712.9999500000001,-128) translate(81.12825520833334 25.27777777777778)"/><use xlink:href="#B" transform="matrix(1,0,0,1,712.9999500000001,-128) translate(7.305555555555557 57.54340277777778)"/><path d="M731-34a6 6 0 0 1 6-6h168a6 6 0 0 1 6 6v71.15a6 6 0 0 1-6 6H737a6 6 0 0 1-6-6z" stroke="#000" stroke-width="2" fill="#fff"/><use xlink:href="#E" transform="matrix(1,0,0,1,742.9999500000001,-27.999999999999986) translate(51.128255208333336 25.27777777777778)"/><use xlink:href="#D" transform="matrix(1,0,0,1,742.9999500000001,-27.999999999999986) translate(18.85828993055557 57.54340277777778)"/><path d="M730 251.27a6 6 0 0 1 6-6h168a6 6 0 0 1 6 6v71.15a6 6 0 0 1-6 6H736a6 6 0 0 1-6-6z" stroke="#000" stroke-width="2" fill="#fff"/><use xlink:href="#A" transform="matrix(1,0,0,1,742,257.26953124999994) translate(32.87196180555556 25.27777777777778)"/><use xlink:href="#D" transform="matrix(1,0,0,1,742,257.26953124999994) translate(18.85828993055557 57.54340277777778)"/><path d="M824.9 536.37h-43.4v-.95h43.4zm277.72-552.74h-116.6l-.88.07-.85.2-.8.33-.75.46-.66.55-.57.66-.45.75-.33.8-.2.84-.07.87V529.9l-.08 1-.24 1-.4.94-.52.86-.66.77-.77.66-.86.54-.94.38-1 .24-.98.07H861.46v-.95h112.52l.88-.07.85-.2.8-.33.75-.46.66-.56.57-.66.45-.74.33-.8.2-.84.07-.88V-10.87l.08-1 .24-.98.4-.94.52-.85.66-.78.77-.66.86-.52.94-.4 1-.22.98-.08h116.64z" stroke="#3a414a" stroke-width=".05" fill="#3a414a"/><path d="M781.5 536.37h-.5v-.95h.5z" fill="#3a414a"/><path stroke="#3a414a" stroke-width=".05" fill="#3a414a"/><path d="M1117.38-16.85l-14.26 4.64v-9.28z" fill="#3a414a"/><path d="M1118.92-16.85l-16.28 5.3v-10.6zm-15.33 4l12.25-4-12.26-3.98z" stroke="#3a414a" stroke-width=".05" fill="#3a414a"/><path d="M690 498.5v-1m0-4.02v-2m0-4.02v-2m0-4.02v-2m0-4.02v-2m0-4.03v-2m0-4.03v-2m0-4.02v-2m0-4.02v-2m0-4.03v-2m0-4.02v-2m0-4.02v-2m0-4.02v-2m0-4.03v-1l.06-.77m1.2-2.86l.5-.6.6-.5m2.86-1.2l.78-.06h.98m3.94 0h1.96m3.94 0h1.96m3.94 0h1.96m3.94 0h1.96m3.94 0h1.96m3.94 0h1.96m3.94 0h1.96m3.94 0h1.96m3.94 0h1.96m3.94 0h1.96m3.94 0h1.96m3.94 0h1.96m3.94 0h1.96m3.94 0h1.96m3.94 0h1.96m3.94 0h1.96m3.94 0h1.96m3.94 0h1.96m3.94 0h1.96m3.94 0h.98l.78-.05m2.87-1.2l.6-.5.5-.6m1.2-2.86l.05-.8v-1.03m0-4.16v-2.07m0-4.16v-2.08m0-4.17v-2.08m0-4.16v-2.1m0-4.15v-2.08m0-4.16v-2.07m0-4.16v-2.08m0-4.17v-2.08m0-4.16V351m0-4.15v-1.04" stroke="#3a414a" fill="none"/><path d="M690.48 499h-.96v-.5h.96z" stroke="#3a414a" stroke-width=".05" fill="#3a414a"/><path d="M820 331.04l4.63 14.27h-9.26z" stroke="#3a414a" fill="#3a414a"/><path d="M690 498.5v-.93m0-3.72V492m0-3.74v-1.86m0-3.72v-1.86m0-3.72v-1.86m0-3.73v-1.85m0-3.72V465l-.06-.78m-1.2-2.87l-.5-.6-.6-.5m-2.86-1.2L684 459h-1m-4 0h-2m-4 0h-2m-4 0h-1l-.78-.06m-2.87-1.2l-.6-.5-.5-.6m-1.2-2.86L660 453v-1m0-4.02v-2m0-4.02v-2m0-4v-2.02m0-4v-2.02m0-4v-2.02m0-4v-2.02m0-4v-2.02m0-4v-2.02m0-4v-2.02m0-4v-2m0-4.03v-2m0-4.03v-2m0-4.02v-2m0-4.02v-2m0-4.02v-2m0-4v-2m0-4.02v-2m0-4.02v-2m0-4.02v-2m0-4.02v-2m0-4.02v-2m0-4.02v-2m0-4.02v-2m0-4.02v-2m0-4.02v-2m0-4.02v-2m0-4.02v-2m0-4.02v-2m0-4v-2.02m0-4v-2.02m0-4v-2.02m0-4v-2.02m0-4v-2.02m0-4v-2.02m0-4v-2.02m0-4v-2.02m0-4v-2.02m0-4v-2m0-4.03v-2m0-4.02v-2m0-4v-2.02m0-4v-2m0-4.02v-2m0-4.02v-2m0-4.02v-2m0-4.02v-2m0-4.02v-2m0-4.02v-2m0-4.02v-2m0-4.02v-2m0-4.02v-2m0-4.02v-2m0-4.02v-2m0-4v-2.02m0-4.02v-2m0-4v-2.02m0-4v-2.02m0-4v-2.02m0-4v-2.02m0-4v-2.02m0-4V84.8m0-4V78.8m0-4v-2.02m0-4v-2m0-4.03v-2m0-4.02v-2m0-4V48.7m0-4v-2m0-4.02v-2m0-4.02v-2m0-4.02v-2m0-4.02v-2m0-4.02v-2m0-4.02v-1l.06-.8m1.2-2.85l.5-.6.6-.5m2.86-1.2l.78-.05h1m3.96 0h1.98m3.97 0h2m3.96 0h2m3.96 0h1.98m3.97 0h1.98m3.97 0h1.98m3.97 0h2m3.95 0h1" stroke="#3a414a" fill="none"/><path d="M690.48 499h-.96v-.5h.96z" stroke="#3a414a" stroke-width=".05" fill="#3a414a"/><path d="M728.38 1.58L714.12 6.2v-9.26z" stroke="#3a414a" fill="#3a414a"/><path d="M1138 734.94a6 6 0 0 1 6-6h188a6 6 0 0 1 6 6v108a6 6 0 0 1-6 6h-188a6 6 0 0 1-6-6z" stroke="#000" stroke-width="2" fill="#fff"/><use xlink:href="#i" transform="matrix(1,0,0,1,1150.0000999999975,740.9355218750001) translate(0.6527777777777715 57.52777777777778)"/><use xlink:href="#F" transform="matrix(1,0,0,1,1150.0000999999975,740.9355218750001) translate(47.31076388888888 57.52777777777778)"/><use xlink:href="#G" transform="matrix(1,0,0,1,1150.0000999999975,740.9355218750001) translate(100.52256944444443 57.52777777777778)"/><path d="M942.5-98.42h10.33m10.34 0h20.66m10.34 0h10.33a6 6 0 0 1 6 6v9.6m0 9.6v19.2m0 9.6v19.22m0 9.6V-6a6 6 0 0 0 6 6h7.7m7.67 0h15.37m7.7 0h7.68" stroke="#3a414a" fill="none"/><path d="M942.5-97.95h-.5v-.95h.5z" stroke="#3a414a" stroke-width=".05" fill="#3a414a"/><path d="M1077.38 0l-14.26 4.63v-9.27z" stroke="#3a414a" fill="#3a414a"/><path d="M1158 754.94a6 6 0 0 1 6-6h188a6 6 0 0 1 6 6v108a6 6 0 0 1-6 6h-188a6 6 0 0 1-6-6z" stroke="#000" stroke-width="2" fill="#fff"/><use xlink:href="#i" transform="matrix(1,0,0,1,1170.0000999999975,760.9355218750001) translate(0.6527777777777715 57.52777777777778)"/><use xlink:href="#F" transform="matrix(1,0,0,1,1170.0000999999975,760.9355218750001) translate(47.31076388888888 57.52777777777778)"/><use xlink:href="#G" transform="matrix(1,0,0,1,1170.0000999999975,760.9355218750001) translate(100.52256944444443 57.52777777777778)"/><path d="M1178 774.94a6 6 0 0 1 6-6h188a6 6 0 0 1 6 6v108a6 6 0 0 1-6 6h-188a6 6 0 0 1-6-6z" stroke="#000" stroke-width="2" fill="#fff"/><use xlink:href="#i" transform="matrix(1,0,0,1,1190.0000999999975,780.9355218750001) translate(0.6527777777777715 57.52777777777778)"/><use xlink:href="#F" transform="matrix(1,0,0,1,1190.0000999999975,780.9355218750001) translate(47.31076388888888 57.52777777777778)"/><use xlink:href="#G" transform="matrix(1,0,0,1,1190.0000999999975,780.9355218750001) translate(100.52256944444443 57.52777777777778)"/><path d="M1418 734.94a6 6 0 0 1 6-6h188a6 6 0 0 1 6 6v108a6 6 0 0 1-6 6h-188a6 6 0 0 1-6-6z" stroke="#000" stroke-width="2" fill="#fff"/><use xlink:href="#i" transform="matrix(1,0,0,1,1430.0000999999975,740.9355218750001) translate(0.4791666666666572 57.52777777777778)"/><use xlink:href="#H" transform="matrix(1,0,0,1,1430.0000999999975,740.9355218750001) translate(47.137152777777764 57.52777777777778)"/><use xlink:href="#G" transform="matrix(1,0,0,1,1430.0000999999975,740.9355218750001) translate(100.69618055555554 57.52777777777778)"/><path d="M1438 754.94a6 6 0 0 1 6-6h188a6 6 0 0 1 6 6v108a6 6 0 0 1-6 6h-188a6 6 0 0 1-6-6z" stroke="#000" stroke-width="2" fill="#fff"/><use xlink:href="#i" transform="matrix(1,0,0,1,1450.0000999999975,760.9355218750001) translate(0.4791666666666572 57.52777777777778)"/><use xlink:href="#H" transform="matrix(1,0,0,1,1450.0000999999975,760.9355218750001) translate(47.137152777777764 57.52777777777778)"/><use xlink:href="#G" transform="matrix(1,0,0,1,1450.0000999999975,760.9355218750001) translate(100.69618055555554 57.52777777777778)"/><path d="M1458 774.94a6 6 0 0 1 6-6h188a6 6 0 0 1 6 6v108a6 6 0 0 1-6 6h-188a6 6 0 0 1-6-6z" stroke="#000" stroke-width="2" fill="#fff"/><use xlink:href="#i" transform="matrix(1,0,0,1,1470.0000999999975,780.9355218750001) translate(0.4791666666666572 57.52777777777778)"/><use xlink:href="#H" transform="matrix(1,0,0,1,1470.0000999999975,780.9355218750001) translate(47.137152777777764 57.52777777777778)"/><use xlink:href="#G" transform="matrix(1,0,0,1,1470.0000999999975,780.9355218750001) translate(100.69618055555554 57.52777777777778)"/><path d="M970 535.5l1 .24.94.38.87.54.78.66.66.77.53.86.4.93.23.98.08 1v405.14l.06.88.2.85.34.8.45.74.57.65.65.56.74.46.8.33.84.2.88.07h290.96l.88-.07.85-.2.8-.34.75-.45.66-.55.57-.66.45-.75.33-.8.2-.85.08-.88v-40.7h.94v40.74l-.07 1-.24.98-.4.94-.52.87-.66.77-.77.66-.86.53-.94.4-1 .24-.98.07H980.98l-1-.06-.98-.24-.94-.4-.87-.52-.78-.66-.66-.77-.53-.87-.4-.94-.23-1-.08-.98V541.9l-.06-.87-.2-.84-.34-.8-.45-.75-.56-.66-.65-.57-.74-.46-.8-.33-.84-.2-.88-.07H861.46v-.95h107.56zm-188.5.87v-.95h43.4v.95z" stroke="#3a414a" stroke-width=".05" fill="#3a414a"/><path d="M781.5 536.37h-.5v-.95h.5z" fill="#3a414a"/><path stroke="#3a414a" stroke-width=".05" fill="#3a414a"/><path d="M1282.63 905.82h-9.27l4.64-14.27z" fill="#3a414a"/><path d="M1283.3 906.3h-10.6L1278 890zm-9.28-.96h7.96L1278 893.1z" stroke="#3a414a" stroke-width=".05" fill="#3a414a"/><path d="M970 535.5l1 .24.94.38.87.54.78.66.66.77.53.86.4.93.23.98.08 1v405.14l.06.88.2.85.34.8.45.74.57.65.65.56.74.46.8.33.84.2.88.07h570.96l.88-.07.85-.2.8-.34.75-.45.66-.55.57-.66.45-.75.33-.8.2-.85.08-.88v-40.7h.94v40.74l-.07 1-.24.98-.4.94-.52.87-.66.77-.77.66-.86.53-.94.4-1 .24-.98.07H980.98l-1-.06-.98-.24-.94-.4-.87-.52-.78-.66-.66-.77-.53-.87-.4-.94-.23-1-.08-.98V541.9l-.06-.87-.2-.84-.34-.8-.45-.75-.56-.66-.65-.57-.74-.46-.8-.33-.84-.2-.88-.07H861.46v-.95h107.56zm-188.5.87v-.95h43.4v.95z" stroke="#3a414a" stroke-width=".05" fill="#3a414a"/><path d="M781.5 536.37h-.5v-.95h.5z" fill="#3a414a"/><path stroke="#3a414a" stroke-width=".05" fill="#3a414a"/><path d="M1562.63 905.82h-9.27l4.64-14.27z" fill="#3a414a"/><path d="M1563.3 906.3h-10.6L1558 890zm-9.28-.96h7.96L1558 893.1z" stroke="#3a414a" stroke-width=".05" fill="#3a414a"/><use xlink:href="#z" transform="matrix(1,0,0,1,824.9010281395015,525.1399864583333) translate(0 17.22222222222222)"/><path d="M690 498.5v-.93m0-3.72V492m0-3.74v-1.86m0-3.72v-1.86m0-3.72v-1.86m0-3.73v-1.85m0-3.72V465l-.06-.78m-1.2-2.87l-.5-.6-.6-.5m-2.86-1.2L684 459h-.93m-3.74 0h-1.86m-3.74 0h-1.86m-3.74 0h-1.86m-3.74 0h-1.86m-3.74 0H656l-.78-.06m-2.87-1.2l-.6-.5-.5-.6m-1.2-2.86L650 453v-1m0-3.94v-1.98m0-3.95v-1.98m0-3.96v-1.98m0-3.96v-1.97m0-3.97v-1.98m0-3.95v-1.98m0-3.95v-1.98m0-3.96v-1.98m0-3.96v-1.97m0-3.96v-1.98m0-3.96v-1.98m0-3.95v-1.97m0-3.95v-1.98m0-3.95v-1.98m0-3.96v-1.96m0-3.96v-1.97m0-3.95v-1.98m0-3.95v-1.98m0-3.95v-2m0-3.94v-1.98m0-3.95v-1.98m0-3.96v-1.98m0-3.96v-1.98m0-3.95v-1.98m0-3.95v-1.98m0-3.95v-1.98m0-3.97v-.98l-.06-.8m-1.2-2.85l-.5-.6-.6-.5m-2.86-1.2l-.78-.05h-1.02m-4.07 0h-2.02m-4.07 0h-2.02m-4.07 0h-2.03m-4.06 0h-2.03m-4.07 0h-2.03m-4.07 0h-1.02" stroke="#3a414a" fill="none"/><path d="M690.48 499h-.96v-.5h.96z" stroke="#3a414a" stroke-width=".05" fill="#3a414a"/><path d="M592.62 286.85l14.26-4.64v9.28z" stroke="#3a414a" fill="#3a414a"/><path d="M1138 476.73a6 6 0 0 1 6-6h168a6 6 0 0 1 6 6v71.15a6 6 0 0 1-6 6h-168a6 6 0 0 1-6-6z" stroke="#000" stroke-width="2" fill="#fff"/><use xlink:href="#I" transform="matrix(1,0,0,1,1150.000099999998,482.7259114583333) translate(30.902560763888893 25.27777777777778)"/><use xlink:href="#J" transform="matrix(1,0,0,1,1150.000099999998,482.7259114583333) translate(84.09266493055554 25.27777777777778)"/><use xlink:href="#K" transform="matrix(1,0,0,1,1150.000099999998,482.7259114583333) translate(22.346788194444443 57.54340277777778)"/><path d="M1138 587.83a6 6 0 0 1 6-6h168a6 6 0 0 1 6 6v103.42a6 6 0 0 1-6 6h-168a6 6 0 0 1-6-6z" stroke="#000" stroke-width="2" fill="#fff"/><g><use xlink:href="#L" transform="matrix(1,0,0,1,1150.000099999998,593.8274989583334) translate(22.346788194444443 24.40277777777778)"/><use xlink:href="#M" transform="matrix(1,0,0,1,1150.000099999998,593.8274989583334) translate(13.481770833333329 56.66840277777778)"/><use xlink:href="#N" transform="matrix(1,0,0,1,1150.000099999998,593.8274989583334) translate(66.69357638888889 56.66840277777778)"/><use xlink:href="#O" transform="matrix(1,0,0,1,1150.000099999998,593.8274989583334) translate(12.445529513888886 88.93402777777777)"/><use xlink:href="#P" transform="matrix(1,0,0,1,1150.000099999998,593.8274989583334) translate(108.14865451388889 88.93402777777777)"/></g><path d="M1428 587.83a6 6 0 0 1 6-6h168a6 6 0 0 1 6 6v103.42a6 6 0 0 1-6 6h-168a6 6 0 0 1-6-6z" stroke="#000" stroke-width="2" fill="#fff"/><g><use xlink:href="#L" transform="matrix(1,0,0,1,1440.0000999999982,593.8274989583334) translate(22.346788194444443 24.40277777777778)"/><use xlink:href="#Q" transform="matrix(1,0,0,1,1440.0000999999982,593.8274989583334) translate(13.308159722222229 56.66840277777778)"/><use xlink:href="#N" transform="matrix(1,0,0,1,1440.0000999999982,593.8274989583334) translate(66.8671875 56.66840277777778)"/><use xlink:href="#O" transform="matrix(1,0,0,1,1440.0000999999982,593.8274989583334) translate(12.445529513888886 88.93402777777777)"/><use xlink:href="#P" transform="matrix(1,0,0,1,1440.0000999999982,593.8274989583334) translate(108.14865451388889 88.93402777777777)"/></g><path d="M1098 724.94a6 6 0 0 1 6-6h588a6 6 0 0 1 6 6v168a6 6 0 0 1-6 6h-588a6 6 0 0 1-6-6z" fill-opacity="0"/><path d="M1123.6 718.94h19.6m9.8 0h19.6m9.8 0h19.6m9.8 0h19.6m9.8 0h19.6m9.8 0h19.6m9.8 0h19.6m9.8 0h19.6m9.8 0h19.6m9.8 0h19.6m9.8 0h19.6m9.8 0h19.6m9.8 0h19.6m9.8 0h19.6m9.8 0h19.6m9.8 0h19.6m9.8 0h19.6m9.8 0h19.6m9.8 0h19.6m9.8 0h9.8a6 6 0 0 1 6 6v9.33m0 9.33v18.67m0 9.33v18.67m0 9.33v18.67m0 9.33v18.67m0 9.33v18.67m0 9.33v9.34a6 6 0 0 1-6 6h-9.8m-9.8 0h-19.6m-9.8 0h-19.6m-9.8 0H1594m-9.8 0h-19.6m-9.8 0h-19.6m-9.8 0h-19.6m-9.8 0h-19.6m-9.8 0H1447m-9.8 0h-19.6m-9.8 0h-19.6m-9.8 0h-19.6m-9.8 0h-19.6m-9.8 0H1300m-9.8 0h-19.6m-9.8 0h-19.6m-9.8 0h-19.6m-9.8 0h-19.6m-9.8 0H1153m-9.8 0h-19.6m-9.8 0h-9.8a6 6 0 0 1-6-6v-9.34m0-9.33V855.6m0-9.33V827.6m0-9.33V799.6m0-9.33V771.6m0-9.33V743.6m0-9.33v-9.33a6 6 0 0 1 6-6h9.8" stroke="#000" stroke-width="2" fill="none"/><path d="M1120-70.85a6 6 0 0 1 6-6h148a6 6 0 0 1 6 6v108a6 6 0 0 1-6 6h-148a6 6 0 0 1-6-6z" stroke="#000" stroke-width="2" fill="#fff"/><g><use xlink:href="#i" transform="matrix(1,0,0,1,1132,-64.84635416666664) translate(27.364149305555557 39.52777777777778)"/><use xlink:href="#x" transform="matrix(1,0,0,1,1132,-64.84635416666664) translate(74.02213541666666 39.52777777777778)"/><use xlink:href="#y" transform="matrix(1,0,0,1,1132,-64.84635416666664) translate(39.68511284722223 71.79340277777777)"/></g><path d="M1140-52.96a6 6 0 0 1 6-6h148a6 6 0 0 1 6 6V56.12a6 6 0 0 1-6 6h-148a6 6 0 0 1-6-6z" stroke="#000" stroke-width="2" fill="#fff"/><g><use xlink:href="#i" transform="matrix(1,0,0,1,1152,-46.96351796327754) translate(27.364149305555557 39.90277777777778)"/><use xlink:href="#x" transform="matrix(1,0,0,1,1152,-46.96351796327754) translate(74.02213541666666 39.90277777777778)"/><use xlink:href="#y" transform="matrix(1,0,0,1,1152,-46.96351796327754) translate(39.68511284722223 72.16840277777777)"/></g><path d="M1160-34a6 6 0 0 1 6-6h148a6 6 0 0 1 6 6V75.08a6 6 0 0 1-6 6h-148a6 6 0 0 1-6-6z" stroke="#000" stroke-width="2" fill="#fff"/><g><use xlink:href="#i" transform="matrix(1,0,0,1,1172,-27.999999999999986) translate(27.364149305555557 39.90277777777778)"/><use xlink:href="#x" transform="matrix(1,0,0,1,1172,-27.999999999999986) translate(74.02213541666666 39.90277777777778)"/><use xlink:href="#y" transform="matrix(1,0,0,1,1172,-27.999999999999986) translate(39.68511284722223 72.16840277777777)"/></g><path d="M400-22.64a6 6 0 0 1 6-6h168a6 6 0 0 1 6 6v59.8a6 6 0 0 1-6 6H406a6 6 0 0 1-6-6z" stroke="#000" stroke-width="2" fill="#fc9432"/><g><use xlink:href="#w" transform="matrix(1,0,0,1,412,-16.636743749999894) translate(15.711588541666664 33.52777777777778)"/></g><path d="M1098 250.2a6 6 0 0 1 6-6h588a6 6 0 0 1 6 6v162.74a6 6 0 0 1-6 6h-588a6 6 0 0 1-6-6z" fill="#e81313"/><path d="M1123.6 244.2h19.6m9.8 0h19.6m9.8 0h19.6m9.8 0h19.6m9.8 0h19.6m9.8 0h19.6m9.8 0h19.6m9.8 0h19.6m9.8 0h19.6m9.8 0h19.6m9.8 0h19.6m9.8 0h19.6m9.8 0h19.6m9.8 0h19.6m9.8 0h19.6m9.8 0h19.6m9.8 0h19.6m9.8 0h19.6m9.8 0h19.6m9.8 0h9.8a6 6 0 0 1 6 6v10.85m0 10.85v21.7m0 10.85v21.7m0 10.85v21.7m0 10.84v21.7m0 10.85v10.84a6 6 0 0 1-6 6h-9.8m-9.8 0h-19.6m-9.8 0h-19.6m-9.8 0H1594m-9.8 0h-19.6m-9.8 0h-19.6m-9.8 0h-19.6m-9.8 0h-19.6m-9.8 0H1447m-9.8 0h-19.6m-9.8 0h-19.6m-9.8 0h-19.6m-9.8 0h-19.6m-9.8 0H1300m-9.8 0h-19.6m-9.8 0h-19.6m-9.8 0h-19.6m-9.8 0h-19.6m-9.8 0H1153m-9.8 0h-19.6m-9.8 0h-9.8a6 6 0 0 1-6-6V402.1m0-10.86v-21.7m0-10.85V337m0-10.85v-21.7m0-10.85v-21.7m0-10.85V250.2a6 6 0 0 1 6-6h9.8" stroke="#000" stroke-width="2" fill="none"/><g><use xlink:href="#R" transform="matrix(1,0,0,1,1110.0000999999977,256.20505312500006) translate(0 21.52777777777778)"/><use xlink:href="#e" transform="matrix(1,0,0,1,1110.0000999999977,256.20505312500006) translate(69.03211805555554 21.52777777777778)"/></g><path d="M1418 324.94a6 6 0 0 1 6-6h228a6 6 0 0 1 6 6v71.15a6 6 0 0 1-6 6h-228a6 6 0 0 1-6-6z" stroke="#000" stroke-width="2" fill="#fff"/><g><use xlink:href="#E" transform="matrix(1,0,0,1,1430.0000999999977,330.93552187500006) translate(81.12825520833334 25.27777777777778)"/><use xlink:href="#B" transform="matrix(1,0,0,1,1430.0000999999977,330.93552187500006) translate(7.305555555555557 57.54340277777778)"/></g><path d="M1145.3 324.94a6 6 0 0 1 6-6h168a6 6 0 0 1 6 6v71.15a6 6 0 0 1-6 6h-168a6 6 0 0 1-6-6z" stroke="#000" stroke-width="2" fill="#fff"/><g><use xlink:href="#S" transform="matrix(1,0,0,1,1157.3013736485927,330.93552187500006) translate(46.60894097222223 25.27777777777778)"/><use xlink:href="#D" transform="matrix(1,0,0,1,1157.3013736485927,330.93552187500006) translate(18.85828993055557 57.54340277777778)"/></g><path d="M941.5 186.85h10.33m10.34 0h20.66m10.34 0h10.33a6 6 0 0 1 6 6v8.76m0 8.78v17.54m0 8.76v17.54m0 8.77v8.75a6 6 0 0 0 6 6h7.7m7.67 0h15.37m7.7 0h7.68" stroke="#3a414a" fill="none"/><path d="M941.5 187.32h-.5v-.95h.5z" stroke="#3a414a" stroke-width=".05" fill="#3a414a"/><path d="M1076.38 277.75l-14.26 4.64v-9.28z" stroke="#3a414a" fill="#3a414a"/><path d="M1760 26a6 6 0 0 1 6-6h288a6 6 0 0 1 6 6v228a6 6 0 0 1-6 6h-288a6 6 0 0 1-6-6z" fill="#e81313"/><path d="M1785.2 20h19.2m9.6 0h19.2m9.6 0h19.2m9.6 0h19.2m9.6 0h19.2m9.6 0h19.2m9.6 0h19.2m9.6 0h19.2m9.6 0h19.2m9.6 0h9.6a6 6 0 0 1 6 6v9.5m0 9.5v19m0 9.5v19m0 9.5v19m0 9.5v19m0 9.5v19m0 9.5v19m0 9.5v19m0 9.5v9.5a6 6 0 0 1-6 6h-9.6m-9.6 0h-19.2m-9.6 0h-19.2m-9.6 0H1958m-9.6 0h-19.2m-9.6 0h-19.2m-9.6 0h-19.2m-9.6 0h-19.2m-9.6 0H1814m-9.6 0h-19.2m-9.6 0h-9.6a6 6 0 0 1-6-6v-9.5m0-9.5v-19m0-9.5v-19m0-9.5v-19m0-9.5v-19m0-9.5v-19m0-9.5v-19m0-9.5V45m0-9.5V26a6 6 0 0 1 6-6h9.6" stroke="#000" stroke-width="2" fill="none"/><g><use xlink:href="#i" transform="matrix(1,0,0,1,1772,32) translate(0 21.52777777777778)"/><use xlink:href="#j" transform="matrix(1,0,0,1,1772,32) translate(46.65798611111111 21.52777777777778)"/></g><path d="M1800 69.15a6 6 0 0 1 6-6h148a6 6 0 0 1 6 6v108a6 6 0 0 1-6 6h-148a6 6 0 0 1-6-6z" stroke="#000" stroke-width="2" fill="#fff"/><g><use xlink:href="#i" transform="matrix(1,0,0,1,1812,75.15364583333337) translate(27.364149305555557 39.52777777777778)"/><use xlink:href="#x" transform="matrix(1,0,0,1,1812,75.15364583333337) translate(74.02213541666666 39.52777777777778)"/><use xlink:href="#y" transform="matrix(1,0,0,1,1812,75.15364583333337) translate(39.68511284722223 71.79340277777777)"/></g><path d="M1820 87.04a6 6 0 0 1 6-6h148a6 6 0 0 1 6 6v109.08a6 6 0 0 1-6 6h-148a6 6 0 0 1-6-6z" stroke="#000" stroke-width="2" fill="#fff"/><g><use xlink:href="#i" transform="matrix(1,0,0,1,1832,93.03648203672246) translate(27.364149305555557 39.90277777777778)"/><use xlink:href="#x" transform="matrix(1,0,0,1,1832,93.03648203672246) translate(74.02213541666666 39.90277777777778)"/><use xlink:href="#y" transform="matrix(1,0,0,1,1832,93.03648203672246) translate(39.68511284722223 72.16840277777777)"/></g><path d="M1840 106a6 6 0 0 1 6-6h148a6 6 0 0 1 6 6v109.08a6 6 0 0 1-6 6h-148a6 6 0 0 1-6-6z" stroke="#000" stroke-width="2" fill="#fff"/><g><use xlink:href="#i" transform="matrix(1,0,0,1,1852,111.99999999999999) translate(27.364149305555557 39.90277777777778)"/><use xlink:href="#x" transform="matrix(1,0,0,1,1852,111.99999999999999) translate(74.02213541666666 39.90277777777778)"/><use xlink:href="#y" transform="matrix(1,0,0,1,1852,111.99999999999999) translate(39.68511284722223 72.16840277777777)"/></g><path d="M1659.5 360.5h12.42m12.4 0h24.85m12.4 0H1734a6 6 0 0 0 6-6v-9.7m0-9.7v-19.44m0-9.7V286.5m0-9.7v-19.44m0-9.7v-19.43m0-9.72V199.1m0-9.7v-19.43m0-9.7v-19.44m0-9.7v-19.44m0-9.72V82.55m0-9.7v-9.72a2.62 2.62 0 0 1 2.62-2.62" stroke="#3a414a" fill="none"/><path d="M1659.5 361h-.5v-.96h.5z" stroke="#3a414a" stroke-width=".05" fill="#3a414a"/><path d="M1757.38 60.5l-14.26 4.65v-9.27z" stroke="#3a414a" fill="#3a414a"/><path d="M60 577.8a6 6 0 0 1 6-6h168a6 6 0 0 1 6 6v59.78a6 6 0 0 1-6 6H66a6 6 0 0 1-6-6z" stroke="#000" stroke-width="2" fill="#fff"/><g><use xlink:href="#T" transform="matrix(1,0,0,1,72,583.7903895833333) translate(3.9819878472222143 33.52777777777778)"/><use xlink:href="#U" transform="matrix(1,0,0,1,72,583.7903895833333) translate(39.46375868055555 33.52777777777778)"/></g><path d="M255.5 607.7H630a6 6 0 0 0 6-6v-14.42" stroke="#3a414a" fill="none"/><path d="M242 607.7l13-7.5v15zM636 573.8l7.5 12.98h-15z" stroke="#3a414a" fill="#3a414a"/><defs><path d="M180 0v-1490h190c0 262 1 526-3 784 217-279 467-523 702-784h249L716-845 1319 0h-225L585-716 370-489V0H180" id="V"/><path d="M633 20c-303 0-511-173-511-416 0-188 124-348 291-378v-8c-145-37-237-174-237-332 0-227 192-396 457-396 261 0 456 169 456 396 0 158-94 295-235 332v8c162 30 291 190 291 378 0 243-212 416-512 416zm0-165c197 0 322-103 322-261 0-165-138-283-322-283-188 0-324 118-324 283 0 158 123 261 324 261zm0-703c157 0 272-101 272-252 0-149-110-246-272-246-165 0-273 97-273 246 0 151 112 252 273 252" id="W"/><path d="M538 24C308 24 148-78 108-271l171-41c32 123 123 178 257 178 156 0 256-77 256-169 0-77-54-128-164-154l-186-44c-203-48-300-148-300-305 0-192 176-326 414-326 230 0 351 112 402 269l-163 42c-31-80-94-158-238-158-133 0-233 69-233 162 0 83 57 129 188 160l169 40c203 48 298 149 298 302 0 196-179 339-441 339" id="X"/><g id="a"><use transform="matrix(0.010850694444444444,0,0,0.010850694444444444,0,0)" xlink:href="#V"/><use transform="matrix(0.010850694444444444,0,0,0.010850694444444444,14.930555555555555,0)" xlink:href="#W"/><use transform="matrix(0.010850694444444444,0,0,0.010850694444444444,28.678385416666664,0)" xlink:href="#X"/></g><path d="M180 0v-1490h270l367 940c28 72 75 218 110 339 35-117 81-264 110-339l362-940h271V0h-187c2-448-5-837 7-1287-157 497-311 829-483 1287H842C666-458 514-784 354-1284c12 438 5 843 7 1284H180" id="Y"/><path d="M613 24c-304 0-509-231-509-576 0-350 205-580 509-580 305 0 511 230 511 580 0 345-206 576-511 576zm0-161c226 0 329-195 329-415 0-222-103-419-329-419-223 0-326 196-326 419 0 220 103 415 326 415" id="Z"/><path d="M598-1118v154H368v674c0 100 37 144 132 144 23 0 62-6 92-12L629-6c-37 13-88 20-134 20-193 0-307-107-307-290v-688H20v-154h168v-266h180v266h230" id="aa"/><path d="M338-670V0H158v-1490h180v566c73-149 190-208 336-208 226 0 379 139 379 422V0H872v-695c0-172-96-275-252-275-161 0-282 109-282 300" id="ab"/><path d="M628 24c-324 0-524-230-524-574 0-343 198-582 503-582 237 0 487 146 487 559v75H286c9 234 145 362 343 362 132 0 231-58 273-172l174 48C1024-91 857 24 628 24zM287-650h624c-17-190-120-322-304-322-192 0-309 151-320 322" id="ac"/><path d="M158 0v-1118h174v172h12c41-113 157-188 290-188 26 0 70 2 91 3v181c-11-2-60-10-108-10-161 0-279 109-279 260V0H158" id="ad"/><path d="M158 0v-1118h180V0H158zm91-1301c-68 0-125-53-125-119s57-119 125-119c69 0 126 53 126 119s-57 119-126 119" id="ae"/><path d="M158 418v-1536h174v179h20c37-59 106-193 324-193 279 0 474 222 474 576 0 356-194 580-473 580-213 0-288-135-325-197h-14v591H158zm492-555c209 0 317-186 317-421 0-232-105-413-317-413-206 0-314 166-314 413 0 249 111 421 314 421" id="af"/><g id="b"><use transform="matrix(0.010850694444444444,0,0,0.010850694444444444,0,0)" xlink:href="#Y"/><use transform="matrix(0.010850694444444444,0,0,0.010850694444444444,20.07378472222222,0)" xlink:href="#Z"/><use transform="matrix(0.010850694444444444,0,0,0.010850694444444444,33.3984375,0)" xlink:href="#aa"/><use transform="matrix(0.010850694444444444,0,0,0.010850694444444444,40.66840277777778,0)" xlink:href="#ab"/><use transform="matrix(0.010850694444444444,0,0,0.010850694444444444,53.80859375,0)" xlink:href="#ac"/><use transform="matrix(0.010850694444444444,0,0,0.010850694444444444,66.76432291666667,0)" xlink:href="#ad"/><use transform="matrix(0.010850694444444444,0,0,0.010850694444444444,75.13020833333334,0)" xlink:href="#X"/><use transform="matrix(0.010850694444444444,0,0,0.010850694444444444,86.85980902777779,0)" xlink:href="#ab"/><use transform="matrix(0.010850694444444444,0,0,0.010850694444444444,100,0)" xlink:href="#ae"/><use transform="matrix(0.010850694444444444,0,0,0.010850694444444444,105.38194444444444,0)" xlink:href="#af"/></g><path d="M180 0v-1490h510c348 0 508 194 508 460 0 198-88 351-276 417L1256 0h-220L726-579c-117 2-238 0-356 1V0H180zm190-747h312c235 0 327-108 327-283 0-177-92-293-329-293H370v576" id="ag"/><path d="M611 442c-248 0-391-105-460-228l146-94c47 65 117 165 314 165 178 0 307-82 307-266v-224h-17C863-141 792-18 576-18c-268 0-472-195-472-546 0-346 197-568 476-568 216 0 288 133 326 193h17v-179h175V29c0 289-215 413-487 413zm-5-620c203 0 314-146 314-390 0-237-108-403-314-403-213 0-319 180-319 403 0 230 109 390 319 390" id="ah"/><path d="M338-670V0H158v-1118h173l1 207c72-158 192-221 342-221 226 0 378 139 378 422V0H872v-695c0-172-96-275-252-275-161 0-282 109-282 300" id="ai"/><path d="M471 26C259 26 90-98 90-318c0-256 228-303 435-329 202-27 287-16 287-108 0-139-79-219-234-219-161 0-248 86-283 164l-173-57c86-203 278-265 451-265 150 0 419 46 419 395V0H815v-152h-12C765-73 660 26 471 26zm31-159c199 0 310-134 310-271v-155c-30 35-226 55-295 64-131 17-246 59-246 186 0 116 97 176 231 176" id="aj"/><path d="M338-1490V0H158v-1490h180" id="ak"/><g id="c"><use transform="matrix(0.010850694444444444,0,0,0.010850694444444444,0,0)" xlink:href="#ag"/><use transform="matrix(0.010850694444444444,0,0,0.010850694444444444,13.975694444444445,0)" xlink:href="#ac"/><use transform="matrix(0.010850694444444444,0,0,0.010850694444444444,26.931423611111104,0)" xlink:href="#ah"/><use transform="matrix(0.010850694444444444,0,0,0.010850694444444444,40.55989583333333,0)" xlink:href="#ae"/><use transform="matrix(0.010850694444444444,0,0,0.010850694444444444,45.94184027777778,0)" xlink:href="#Z"/><use transform="matrix(0.010850694444444444,0,0,0.010850694444444444,59.26649305555555,0)" xlink:href="#ai"/><use transform="matrix(0.010850694444444444,0,0,0.010850694444444444,72.39583333333333,0)" xlink:href="#aj"/><use transform="matrix(0.010850694444444444,0,0,0.010850694444444444,84.87413194444444,0)" xlink:href="#ak"/></g><path d="M783 20c-382 0-661-292-661-764 0-473 279-766 661-766 302 0 548 182 601 489h-190c-42-204-217-313-411-313-268 0-476 208-476 590 0 381 209 588 476 588 195 0 369-110 411-313h190c-52 303-296 489-601 489" id="al"/><path d="M537 14c-226 0-379-139-379-422v-710h180v695c0 172 97 275 253 275 160 0 281-109 281-300v-670h181V0H879v-209C806-46 684 14 537 14" id="am"/><path d="M158 0v-1118h175l1 205c55-151 181-225 313-225 147 0 245 90 285 228 53-141 190-228 352-228 194 0 352 125 352 384V0h-181v-749c0-161-105-225-225-225-151 0-243 103-243 244V0H807v-767c0-124-93-207-219-207-131 0-250 92-250 270V0H158" id="an"/><path d="M653-1490V0H466v-1314h-10L96-1047v-204l324-239h233" id="ao"/><g id="d"><use transform="matrix(0.010850694444444444,0,0,0.010850694444444444,0,0)" xlink:href="#al"/><use transform="matrix(0.010850694444444444,0,0,0.010850694444444444,16.23263888888889,0)" xlink:href="#am"/><use transform="matrix(0.010850694444444444,0,0,0.010850694444444444,29.37282986111111,0)" xlink:href="#X"/><use transform="matrix(0.010850694444444444,0,0,0.010850694444444444,41.10243055555556,0)" xlink:href="#aa"/><use transform="matrix(0.010850694444444444,0,0,0.010850694444444444,48.15538194444445,0)" xlink:href="#Z"/><use transform="matrix(0.010850694444444444,0,0,0.010850694444444444,61.48003472222223,0)" xlink:href="#an"/><use transform="matrix(0.010850694444444444,0,0,0.010850694444444444,80.94618055555556,0)" xlink:href="#ac"/><use transform="matrix(0.010850694444444444,0,0,0.010850694444444444,93.90190972222221,0)" xlink:href="#ad"/><use transform="matrix(0.010850694444444444,0,0,0.010850694444444444,102.2677951388889,0)" xlink:href="#ao"/></g><path d="M180 0v-1490h224l606 953c40 63 108 177 176 312-27-437-7-821-13-1265h190V0h-226C860-448 622-778 356-1262c27 476 11 792 15 1262H180" id="ap"/><path d="M613 24c-304 0-509-231-509-576 0-350 205-580 509-580 216 0 392 114 453 309l-173 49c-33-115-133-197-280-197-223 0-326 196-326 419 0 220 103 415 326 415 150 0 252-85 285-206l172 49C1010-95 832 24 613 24" id="aq"/><g id="e"><use transform="matrix(0.010850694444444444,0,0,0.010850694444444444,0,0)" xlink:href="#ap"/><use transform="matrix(0.010850694444444444,0,0,0.010850694444444444,16.74262152777778,0)" xlink:href="#aj"/><use transform="matrix(0.010850694444444444,0,0,0.010850694444444444,29.22092013888889,0)" xlink:href="#an"/><use transform="matrix(0.010850694444444444,0,0,0.010850694444444444,48.68706597222222,0)" xlink:href="#ac"/><use transform="matrix(0.010850694444444444,0,0,0.010850694444444444,61.642795138888886,0)" xlink:href="#X"/><use transform="matrix(0.010850694444444444,0,0,0.010850694444444444,73.37239583333333,0)" xlink:href="#af"/><use transform="matrix(0.010850694444444444,0,0,0.010850694444444444,87.19618055555554,0)" xlink:href="#aj"/><use transform="matrix(0.010850694444444444,0,0,0.010850694444444444,99.67447916666666,0)" xlink:href="#aq"/><use transform="matrix(0.010850694444444444,0,0,0.010850694444444444,112.36979166666666,0)" xlink:href="#ac"/></g><path d="M180 0v-1490h510c348 0 508 209 508 474 0 266-160 477-507 477H370V0H180zm190-706h312c236 0 327-133 327-310 0-176-91-307-329-307H370v617" id="ar"/><path d="M657 26c-323 0-524-166-541-416h195c15 169 171 246 346 246 202 0 356-106 356-265 5-203-294-238-475-293-239-73-380-191-380-389 0-252 224-419 512-419 294 0 499 171 508 396H992c-17-145-151-228-328-228-193 0-321 102-321 242 0 156 175 211 284 241l149 41c160 44 422 134 422 412 0 244-197 432-541 432" id="as"/><path d="M784 20c-382 0-662-292-662-764 0-473 280-766 662-766s660 293 660 766c0 282-99 499-260 629l192 255h-198L1049-33C969 2 880 20 784 20zm-62-486h198l156 205c112-98 183-261 183-483 0-383-209-590-475-590-268 0-477 208-477 590 0 380 209 588 477 588 54 0 106-9 154-25" id="at"/><path d="M180 0v-1490h190v1322h690V0H180" id="au"/><g id="f"><use transform="matrix(0.010850694444444444,0,0,0.010850694444444444,0,0)" xlink:href="#ar"/><use transform="matrix(0.010850694444444444,0,0,0.010850694444444444,14.192708333333332,0)" xlink:href="#as"/><use transform="matrix(0.010850694444444444,0,0,0.010850694444444444,28.450520833333332,0)" xlink:href="#at"/><use transform="matrix(0.010850694444444444,0,0,0.010850694444444444,45.44270833333333,0)" xlink:href="#au"/></g><path d="M784 20c-382 0-662-292-662-764 0-473 280-766 662-766s660 293 660 766c0 472-278 764-660 764zm0-176c266 0 475-207 475-588 0-383-209-590-475-590-268 0-477 208-477 590 0 380 209 588 477 588" id="av"/><g id="g"><use transform="matrix(0.010850694444444444,0,0,0.010850694444444444,0,0)" xlink:href="#av"/><use transform="matrix(0.010850694444444444,0,0,0.010850694444444444,16.9921875,0)" xlink:href="#af"/><use transform="matrix(0.010850694444444444,0,0,0.010850694444444444,30.598958333333332,0)" xlink:href="#ac"/><use transform="matrix(0.010850694444444444,0,0,0.010850694444444444,43.5546875,0)" xlink:href="#ad"/><use transform="matrix(0.010850694444444444,0,0,0.010850694444444444,52.267795138888886,0)" xlink:href="#aa"/><use transform="matrix(0.010850694444444444,0,0,0.010850694444444444,59.32074652777778,0)" xlink:href="#Z"/><use transform="matrix(0.010850694444444444,0,0,0.010850694444444444,72.64539930555556,0)" xlink:href="#ad"/></g><g id="h"><use transform="matrix(0.010850694444444444,0,0,0.010850694444444444,0,0)" xlink:href="#ag"/><use transform="matrix(0.010850694444444444,0,0,0.010850694444444444,13.975694444444445,0)" xlink:href="#ac"/><use transform="matrix(0.010850694444444444,0,0,0.010850694444444444,26.931423611111104,0)" xlink:href="#ah"/><use transform="matrix(0.010850694444444444,0,0,0.010850694444444444,40.55989583333333,0)" xlink:href="#ae"/><use transform="matrix(0.010850694444444444,0,0,0.010850694444444444,45.94184027777778,0)" xlink:href="#Z"/><use transform="matrix(0.010850694444444444,0,0,0.010850694444444444,59.26649305555555,0)" xlink:href="#ai"/><use transform="matrix(0.010850694444444444,0,0,0.010850694444444444,72.39583333333333,0)" xlink:href="#aj"/><use transform="matrix(0.010850694444444444,0,0,0.010850694444444444,84.87413194444444,0)" xlink:href="#ak"/></g><g id="i"><use transform="matrix(0.010850694444444444,0,0,0.010850694444444444,0,0)" xlink:href="#V"/><use transform="matrix(0.010850694444444444,0,0,0.010850694444444444,14.930555555555555,0)" xlink:href="#W"/><use transform="matrix(0.010850694444444444,0,0,0.010850694444444444,28.678385416666664,0)" xlink:href="#X"/></g><path d="M577 24c-279 0-473-224-473-580 0-354 195-576 474-576 218 0 287 134 324 193h14v-551h180V0H922v-173h-20C865-111 790 24 577 24zm27-161c203 0 314-172 314-421 0-247-108-413-314-413-212 0-317 181-317 413 0 235 108 421 317 421" id="aw"/><g id="j"><use transform="matrix(0.010850694444444444,0,0,0.010850694444444444,0,0)" xlink:href="#al"/><use transform="matrix(0.010850694444444444,0,0,0.010850694444444444,16.23263888888889,0)" xlink:href="#ab"/><use transform="matrix(0.010850694444444444,0,0,0.010850694444444444,29.37282986111111,0)" xlink:href="#ae"/><use transform="matrix(0.010850694444444444,0,0,0.010850694444444444,34.75477430555556,0)" xlink:href="#ak"/><use transform="matrix(0.010850694444444444,0,0,0.010850694444444444,40.13671875,0)" xlink:href="#aw"/></g><g id="k"><use transform="matrix(0.010850694444444444,0,0,0.010850694444444444,0,0)" xlink:href="#al"/><use transform="matrix(0.010850694444444444,0,0,0.010850694444444444,16.23263888888889,0)" xlink:href="#ab"/><use transform="matrix(0.010850694444444444,0,0,0.010850694444444444,29.37282986111111,0)" xlink:href="#ae"/><use transform="matrix(0.010850694444444444,0,0,0.010850694444444444,34.75477430555556,0)" xlink:href="#ak"/><use transform="matrix(0.010850694444444444,0,0,0.010850694444444444,40.13671875,0)" xlink:href="#aw"/></g><path d="M52 0l541-1490h220L1361 0h-200l-149-416H398L254 0H52zm404-582h497c-103-290-145-390-251-756-108 377-145 460-246 756" id="ax"/><path d="M458 0L52-1490h194c108 439 233 855 324 1313 92-459 221-873 331-1313h216c110 438 234 854 330 1307 92-455 216-869 323-1307h196L1558 0h-221l-256-944c-26-95-50-200-73-331-22 122-44 223-73 331L680 0H458" id="ay"/><path d="M57 0l534-763-501-727h220c122 187 296 416 391 605 94-191 272-419 396-605h215L811-770 1340 0h-219C986-204 811-426 699-640 588-430 407-202 273 0H57" id="az"/><g id="l"><use transform="matrix(0.010850694444444444,0,0,0.010850694444444444,0,0)" xlink:href="#ax"/><use transform="matrix(0.010850694444444444,0,0,0.010850694444444444,14.073350694444445,0)" xlink:href="#ay"/><use transform="matrix(0.010850694444444444,0,0,0.010850694444444444,35.970052083333336,0)" xlink:href="#az"/></g><path d="M692-1560L212 224H46l480-1784h166" id="aA"/><g id="m"><use transform="matrix(0.010850694444444444,0,0,0.010850694444444444,0,0)" xlink:href="#V"/><use transform="matrix(0.010850694444444444,0,0,0.010850694444444444,14.181857638888888,0)" xlink:href="#al"/><use transform="matrix(0.010850694444444444,0,0,0.010850694444444444,30.414496527777775,0)" xlink:href="#Y"/><use transform="matrix(0.010850694444444444,0,0,0.010850694444444444,50.48828125,0)" xlink:href="#aA"/><use transform="matrix(0.010850694444444444,0,0,0.010850694444444444,58.49609375,0)" xlink:href="#Y"/><use transform="matrix(0.010850694444444444,0,0,0.010850694444444444,78.56987847222223,0)" xlink:href="#Z"/><use transform="matrix(0.010850694444444444,0,0,0.010850694444444444,91.89453125,0)" xlink:href="#aa"/><use transform="matrix(0.010850694444444444,0,0,0.010850694444444444,99.16449652777777,0)" xlink:href="#ab"/><use transform="matrix(0.010850694444444444,0,0,0.010850694444444444,112.3046875,0)" xlink:href="#ac"/><use transform="matrix(0.010850694444444444,0,0,0.010850694444444444,125.26041666666666,0)" xlink:href="#ad"/><use transform="matrix(0.010850694444444444,0,0,0.010850694444444444,133.62630208333334,0)" xlink:href="#X"/><use transform="matrix(0.010850694444444444,0,0,0.010850694444444444,145.3559027777778,0)" xlink:href="#ab"/><use transform="matrix(0.010850694444444444,0,0,0.010850694444444444,158.49609375000003,0)" xlink:href="#ae"/><use transform="matrix(0.010850694444444444,0,0,0.010850694444444444,163.87803819444449,0)" xlink:href="#af"/></g><g id="n"><use transform="matrix(0.010850694444444444,0,0,0.010850694444444444,0,0)" xlink:href="#ax"/><use transform="matrix(0.010850694444444444,0,0,0.010850694444444444,14.073350694444445,0)" xlink:href="#ay"/><use transform="matrix(0.010850694444444444,0,0,0.010850694444444444,35.970052083333336,0)" xlink:href="#az"/></g><g id="o"><use transform="matrix(0.010850694444444444,0,0,0.010850694444444444,0,0)" xlink:href="#av"/><use transform="matrix(0.010850694444444444,0,0,0.010850694444444444,16.9921875,0)" xlink:href="#af"/><use transform="matrix(0.010850694444444444,0,0,0.010850694444444444,30.598958333333332,0)" xlink:href="#ac"/><use transform="matrix(0.010850694444444444,0,0,0.010850694444444444,43.5546875,0)" xlink:href="#ad"/><use transform="matrix(0.010850694444444444,0,0,0.010850694444444444,51.920572916666664,0)" xlink:href="#aj"/><use transform="matrix(0.010850694444444444,0,0,0.010850694444444444,64.39887152777777,0)" xlink:href="#aa"/><use transform="matrix(0.010850694444444444,0,0,0.010850694444444444,71.45182291666666,0)" xlink:href="#Z"/><use transform="matrix(0.010850694444444444,0,0,0.010850694444444444,84.77647569444443,0)" xlink:href="#ad"/></g><g id="p"><use transform="matrix(0.010850694444444444,0,0,0.010850694444444444,0,0)" xlink:href="#ax"/><use transform="matrix(0.010850694444444444,0,0,0.010850694444444444,14.073350694444445,0)" xlink:href="#ay"/><use transform="matrix(0.010850694444444444,0,0,0.010850694444444444,35.970052083333336,0)" xlink:href="#az"/></g><g id="q"><use transform="matrix(0.010850694444444444,0,0,0.010850694444444444,0,0)" xlink:href="#ax"/><use transform="matrix(0.010850694444444444,0,0,0.010850694444444444,14.073350694444445,0)" xlink:href="#ay"/><use transform="matrix(0.010850694444444444,0,0,0.010850694444444444,35.970052083333336,0)" xlink:href="#az"/></g><path d="M678-1118v154H420V0H240v-964H20v-154h220v-149c0-194 155-293 318-293 85 0 141 18 168 30l-50 154c-19-6-47-17-97-17-111 0-159 58-159 166v109h258" id="aB"/><g id="r"><use transform="matrix(0.010850694444444444,0,0,0.010850694444444444,0,0)" xlink:href="#al"/><use transform="matrix(0.010850694444444444,0,0,0.010850694444444444,16.23263888888889,0)" xlink:href="#Z"/><use transform="matrix(0.010850694444444444,0,0,0.010850694444444444,29.557291666666664,0)" xlink:href="#ai"/><use transform="matrix(0.010850694444444444,0,0,0.010850694444444444,42.68663194444444,0)" xlink:href="#aB"/><use transform="matrix(0.010850694444444444,0,0,0.010850694444444444,50.91145833333333,0)" xlink:href="#ae"/><use transform="matrix(0.010850694444444444,0,0,0.010850694444444444,56.29340277777778,0)" xlink:href="#ah"/></g><path d="M545 20c-263 0-445-160-445-446v-80h190v80c0 182 102 279 255 279 152 0 254-97 254-279v-1064h190v1064c0 286-181 446-444 446" id="aC"/><path d="M677 24c-213 0-288-135-325-197h-20V0H158v-1490h180v551h14c37-59 106-193 324-193 279 0 474 222 474 576 0 356-194 580-473 580zm-27-161c209 0 317-186 317-421 0-232-105-413-317-413-206 0-314 166-314 413 0 249 111 421 314 421" id="aD"/><g id="s"><use transform="matrix(0.010850694444444444,0,0,0.010850694444444444,0,0)" xlink:href="#aC"/><use transform="matrix(0.010850694444444444,0,0,0.010850694444444444,12.684461805555555,0)" xlink:href="#Z"/><use transform="matrix(0.010850694444444444,0,0,0.010850694444444444,26.009114583333332,0)" xlink:href="#aD"/></g><g id="t"><use transform="matrix(0.010850694444444444,0,0,0.010850694444444444,0,0)" xlink:href="#ar"/><use transform="matrix(0.010850694444444444,0,0,0.010850694444444444,14.073350694444445,0)" xlink:href="#Z"/><use transform="matrix(0.010850694444444444,0,0,0.010850694444444444,27.39800347222222,0)" xlink:href="#X"/><use transform="matrix(0.010850694444444444,0,0,0.010850694444444444,39.127604166666664,0)" xlink:href="#aa"/><use transform="matrix(0.010850694444444444,0,0,0.010850694444444444,46.18055555555556,0)" xlink:href="#ah"/><use transform="matrix(0.010850694444444444,0,0,0.010850694444444444,59.80902777777778,0)" xlink:href="#ad"/><use transform="matrix(0.010850694444444444,0,0,0.010850694444444444,67.80598958333333,0)" xlink:href="#ac"/><use transform="matrix(0.010850694444444444,0,0,0.010850694444444444,80.76171875,0)" xlink:href="#as"/><use transform="matrix(0.010850694444444444,0,0,0.010850694444444444,95.01953125,0)" xlink:href="#at"/><use transform="matrix(0.010850694444444444,0,0,0.010850694444444444,112.01171875,0)" xlink:href="#au"/></g><g id="u"><use transform="matrix(0.010850694444444444,0,0,0.010850694444444444,0,0)" xlink:href="#av"/><use transform="matrix(0.010850694444444444,0,0,0.010850694444444444,16.9921875,0)" xlink:href="#af"/><use transform="matrix(0.010850694444444444,0,0,0.010850694444444444,30.598958333333332,0)" xlink:href="#ac"/><use transform="matrix(0.010850694444444444,0,0,0.010850694444444444,43.5546875,0)" xlink:href="#ad"/><use transform="matrix(0.010850694444444444,0,0,0.010850694444444444,51.920572916666664,0)" xlink:href="#aj"/><use transform="matrix(0.010850694444444444,0,0,0.010850694444444444,64.39887152777777,0)" xlink:href="#aa"/><use transform="matrix(0.010850694444444444,0,0,0.010850694444444444,71.45182291666666,0)" xlink:href="#Z"/><use transform="matrix(0.010850694444444444,0,0,0.010850694444444444,84.77647569444443,0)" xlink:href="#ad"/></g><path d="M218-607c0-325 108-727 258-974h175c-155 315-250 682-250 974 0 265 78 531 250 886H476C306-10 218-315 218-607" id="aE"/><path d="M96 279C273-86 346-350 346-607c0-292-95-659-250-974h175c150 246 258 650 258 974 0 297-91 602-258 886H96" id="aF"/><g id="v"><use transform="matrix(0.010850694444444444,0,0,0.010850694444444444,0,0)" xlink:href="#aE"/><use transform="matrix(0.010850694444444444,0,0,0.010850694444444444,8.10546875,0)" xlink:href="#av"/><use transform="matrix(0.010850694444444444,0,0,0.010850694444444444,25.09765625,0)" xlink:href="#af"/><use transform="matrix(0.010850694444444444,0,0,0.010850694444444444,38.70442708333333,0)" xlink:href="#aa"/><use transform="matrix(0.010850694444444444,0,0,0.010850694444444444,45.97439236111111,0)" xlink:href="#ae"/><use transform="matrix(0.010850694444444444,0,0,0.010850694444444444,51.35633680555556,0)" xlink:href="#Z"/><use transform="matrix(0.010850694444444444,0,0,0.010850694444444444,64.68098958333333,0)" xlink:href="#ai"/><use transform="matrix(0.010850694444444444,0,0,0.010850694444444444,77.8103298611111,0)" xlink:href="#aj"/><use transform="matrix(0.010850694444444444,0,0,0.010850694444444444,90.28862847222221,0)" xlink:href="#ak"/><use transform="matrix(0.010850694444444444,0,0,0.010850694444444444,95.67057291666666,0)" xlink:href="#aF"/></g><g id="w"><use transform="matrix(0.010850694444444444,0,0,0.010850694444444444,0,0)" xlink:href="#ar"/><use transform="matrix(0.010850694444444444,0,0,0.010850694444444444,14.073350694444445,0)" xlink:href="#Z"/><use transform="matrix(0.010850694444444444,0,0,0.010850694444444444,27.39800347222222,0)" xlink:href="#X"/><use transform="matrix(0.010850694444444444,0,0,0.010850694444444444,39.127604166666664,0)" xlink:href="#aa"/><use transform="matrix(0.010850694444444444,0,0,0.010850694444444444,46.18055555555556,0)" xlink:href="#ah"/><use transform="matrix(0.010850694444444444,0,0,0.010850694444444444,59.80902777777778,0)" xlink:href="#ad"/><use transform="matrix(0.010850694444444444,0,0,0.010850694444444444,67.80598958333333,0)" xlink:href="#ac"/><use transform="matrix(0.010850694444444444,0,0,0.010850694444444444,80.76171875,0)" xlink:href="#as"/><use transform="matrix(0.010850694444444444,0,0,0.010850694444444444,95.01953125,0)" xlink:href="#at"/><use transform="matrix(0.010850694444444444,0,0,0.010850694444444444,112.01171875,0)" xlink:href="#au"/></g><path d="M180 0v-1490h528c311 0 458 177 458 395 0 191-114 278-244 313v14c139 9 302 137 302 371 0 225-148 397-499 397H180zm190-168h350c232 0 321-102 321-231 0-149-120-277-311-277H370v508zm0-668h328c160 0 286-101 286-255 0-129-87-231-280-231H370v486" id="aG"/><g id="x"><use transform="matrix(0.010850694444444444,0,0,0.010850694444444444,0,0)" xlink:href="#aG"/><use transform="matrix(0.010850694444444444,0,0,0.010850694444444444,14.539930555555555,0)" xlink:href="#Y"/></g><g id="y"><use transform="matrix(0.010850694444444444,0,0,0.010850694444444444,0,0)" xlink:href="#ap"/><use transform="matrix(0.010850694444444444,0,0,0.010850694444444444,16.74262152777778,0)" xlink:href="#Z"/><use transform="matrix(0.010850694444444444,0,0,0.010850694444444444,30.06727430555556,0)" xlink:href="#aw"/><use transform="matrix(0.010850694444444444,0,0,0.010850694444444444,43.674045138888886,0)" xlink:href="#ac"/></g><path fill="#333" d="M681 22C323 22 94-145 85-462h297c10 151 131 226 296 226 163 0 271-77 271-190 0-102-95-149-257-189l-164-41c-252-61-403-188-403-405 0-269 236-449 560-449 330 0 546 183 551 445H941c-11-119-106-188-259-188-156 0-244 72-244 172-3 156 226 185 373 221 250 61 445 186 445 436 0 271-213 446-575 446" id="aH"/><path fill="#333" d="M135 0v-1490h305v602h649v-602h306V0h-306v-635H440V0H135" id="aI"/><g id="z"><use transform="matrix(0.008680555555555556,0,0,0.008680555555555556,0,0)" xlink:href="#aH"/><use transform="matrix(0.008680555555555556,0,0,0.008680555555555556,11.640625,0)" xlink:href="#aH"/><use transform="matrix(0.008680555555555556,0,0,0.008680555555555556,23.28125,0)" xlink:href="#aI"/></g><g id="A"><use transform="matrix(0.010850694444444444,0,0,0.010850694444444444,0,0)" xlink:href="#ag"/><use transform="matrix(0.010850694444444444,0,0,0.010850694444444444,13.975694444444445,0)" xlink:href="#ac"/><use transform="matrix(0.010850694444444444,0,0,0.010850694444444444,26.931423611111104,0)" xlink:href="#ah"/><use transform="matrix(0.010850694444444444,0,0,0.010850694444444444,40.55989583333333,0)" xlink:href="#ae"/><use transform="matrix(0.010850694444444444,0,0,0.010850694444444444,45.94184027777778,0)" xlink:href="#Z"/><use transform="matrix(0.010850694444444444,0,0,0.010850694444444444,59.26649305555555,0)" xlink:href="#ai"/><use transform="matrix(0.010850694444444444,0,0,0.010850694444444444,72.39583333333333,0)" xlink:href="#aj"/><use transform="matrix(0.010850694444444444,0,0,0.010850694444444444,84.87413194444444,0)" xlink:href="#ak"/></g><path d="M645 0H180v-1490h484c435 0 692 280 692 742 0 466-257 748-711 748zM370-168h263c363 0 539-218 539-580 0-358-176-574-521-574H370v1154" id="aJ"/><path d="M140 405l46-156c120 36 205 19 263-150l32-93L54-1118h197c107 313 237 620 324 950 87-331 219-637 326-950h196L606 167c-68 178-176 259-334 259-64 0-113-12-132-21" id="aK"/><g id="B"><use transform="matrix(0.010850694444444444,0,0,0.010850694444444444,0,0)" xlink:href="#al"/><use transform="matrix(0.010850694444444444,0,0,0.010850694444444444,16.23263888888889,0)" xlink:href="#ak"/><use transform="matrix(0.010850694444444444,0,0,0.010850694444444444,21.614583333333336,0)" xlink:href="#am"/><use transform="matrix(0.010850694444444444,0,0,0.010850694444444444,34.75477430555556,0)" xlink:href="#X"/><use transform="matrix(0.010850694444444444,0,0,0.010850694444444444,46.484375,0)" xlink:href="#aa"/><use transform="matrix(0.010850694444444444,0,0,0.010850694444444444,53.5373263888889,0)" xlink:href="#ac"/><use transform="matrix(0.010850694444444444,0,0,0.010850694444444444,66.49305555555556,0)" xlink:href="#ad"/><use transform="matrix(0.010850694444444444,0,0,0.010850694444444444,75.20616319444446,0)" xlink:href="#aJ"/><use transform="matrix(0.010850694444444444,0,0,0.010850694444444444,91.24348958333334,0)" xlink:href="#ac"/><use transform="matrix(0.010850694444444444,0,0,0.010850694444444444,104.19921875000001,0)" xlink:href="#af"/><use transform="matrix(0.010850694444444444,0,0,0.010850694444444444,117.80598958333334,0)" xlink:href="#ak"/><use transform="matrix(0.010850694444444444,0,0,0.010850694444444444,123.1879340277778,0)" xlink:href="#Z"/><use transform="matrix(0.010850694444444444,0,0,0.010850694444444444,136.0785590277778,0)" xlink:href="#aK"/><use transform="matrix(0.010850694444444444,0,0,0.010850694444444444,148.56770833333334,0)" xlink:href="#an"/><use transform="matrix(0.010850694444444444,0,0,0.010850694444444444,168.03385416666669,0)" xlink:href="#ac"/><use transform="matrix(0.010850694444444444,0,0,0.010850694444444444,180.98958333333331,0)" xlink:href="#ai"/><use transform="matrix(0.010850694444444444,0,0,0.010850694444444444,194.11892361111111,0)" xlink:href="#aa"/></g><g id="C"><use transform="matrix(0.010850694444444444,0,0,0.010850694444444444,0,0)" xlink:href="#Y"/><use transform="matrix(0.010850694444444444,0,0,0.010850694444444444,20.07378472222222,0)" xlink:href="#Z"/><use transform="matrix(0.010850694444444444,0,0,0.010850694444444444,33.3984375,0)" xlink:href="#aa"/><use transform="matrix(0.010850694444444444,0,0,0.010850694444444444,40.66840277777778,0)" xlink:href="#ab"/><use transform="matrix(0.010850694444444444,0,0,0.010850694444444444,53.80859375,0)" xlink:href="#ac"/><use transform="matrix(0.010850694444444444,0,0,0.010850694444444444,66.76432291666667,0)" xlink:href="#ad"/><use transform="matrix(0.010850694444444444,0,0,0.010850694444444444,75.13020833333334,0)" xlink:href="#X"/><use transform="matrix(0.010850694444444444,0,0,0.010850694444444444,86.85980902777779,0)" xlink:href="#ab"/><use transform="matrix(0.010850694444444444,0,0,0.010850694444444444,100,0)" xlink:href="#ae"/><use transform="matrix(0.010850694444444444,0,0,0.010850694444444444,105.38194444444444,0)" xlink:href="#af"/></g><path d="M158 0v-1490h180v865h22l478-493h223L593-638 1096 0H865L456-523 338-412V0H158" id="aL"/><g id="D"><use transform="matrix(0.010850694444444444,0,0,0.010850694444444444,0,0)" xlink:href="#aL"/><use transform="matrix(0.010850694444444444,0,0,0.010850694444444444,12.196180555555555,0)" xlink:href="#am"/><use transform="matrix(0.010850694444444444,0,0,0.010850694444444444,25.33637152777778,0)" xlink:href="#aD"/><use transform="matrix(0.010850694444444444,0,0,0.010850694444444444,38.943142361111114,0)" xlink:href="#ac"/><use transform="matrix(0.010850694444444444,0,0,0.010850694444444444,51.89887152777778,0)" xlink:href="#aq"/><use transform="matrix(0.010850694444444444,0,0,0.010850694444444444,64.59418402777777,0)" xlink:href="#Z"/><use transform="matrix(0.010850694444444444,0,0,0.010850694444444444,77.91883680555554,0)" xlink:href="#ai"/><use transform="matrix(0.010850694444444444,0,0,0.010850694444444444,91.04817708333331,0)" xlink:href="#aB"/><use transform="matrix(0.010850694444444444,0,0,0.010850694444444444,99.2730034722222,0)" xlink:href="#ae"/><use transform="matrix(0.010850694444444444,0,0,0.010850694444444444,104.65494791666664,0)" xlink:href="#ah"/></g><g id="E"><use transform="matrix(0.010850694444444444,0,0,0.010850694444444444,0,0)" xlink:href="#al"/><use transform="matrix(0.010850694444444444,0,0,0.010850694444444444,16.23263888888889,0)" xlink:href="#ab"/><use transform="matrix(0.010850694444444444,0,0,0.010850694444444444,29.37282986111111,0)" xlink:href="#ae"/><use transform="matrix(0.010850694444444444,0,0,0.010850694444444444,34.75477430555556,0)" xlink:href="#ak"/><use transform="matrix(0.010850694444444444,0,0,0.010850694444444444,40.13671875,0)" xlink:href="#aw"/></g><path d="M763 24c-353 0-583-224-583-531v-983h190v968c0 214 149 370 393 370 243 0 391-156 391-370v-968h190v983c0 307-230 531-581 531" id="aM"/><g id="F"><use transform="matrix(0.010850694444444444,0,0,0.010850694444444444,0,0)" xlink:href="#al"/><use transform="matrix(0.010850694444444444,0,0,0.010850694444444444,16.23263888888889,0)" xlink:href="#ar"/><use transform="matrix(0.010850694444444444,0,0,0.010850694444444444,30.42534722222222,0)" xlink:href="#aM"/></g><g id="G"><use transform="matrix(0.010850694444444444,0,0,0.010850694444444444,0,0)" xlink:href="#ay"/><use transform="matrix(0.010850694444444444,0,0,0.010850694444444444,20.768229166666668,0)" xlink:href="#Z"/><use transform="matrix(0.010850694444444444,0,0,0.010850694444444444,34.09288194444444,0)" xlink:href="#ad"/><use transform="matrix(0.010850694444444444,0,0,0.010850694444444444,42.80598958333333,0)" xlink:href="#aL"/><use transform="matrix(0.010850694444444444,0,0,0.010850694444444444,54.50303819444444,0)" xlink:href="#ac"/><use transform="matrix(0.010850694444444444,0,0,0.010850694444444444,67.45876736111111,0)" xlink:href="#ad"/></g><path d="M789 20c-398 0-667-293-667-764 0-473 273-766 655-766 315 0 558 198 612 487h-196c-61-191-204-311-415-311-262 0-471 207-471 590 0 380 208 588 482 588 249 0 420-165 425-427H828v-166h572v163c0 370-256 606-611 606" id="aN"/><g id="H"><use transform="matrix(0.010850694444444444,0,0,0.010850694444444444,0,0)" xlink:href="#aN"/><use transform="matrix(0.010850694444444444,0,0,0.010850694444444444,16.57986111111111,0)" xlink:href="#ar"/><use transform="matrix(0.010850694444444444,0,0,0.010850694444444444,30.772569444444443,0)" xlink:href="#aM"/></g><path d="M180 0v-1490h190v644h782v-644h190V0h-190v-678H370V0H180" id="aO"/><g id="I"><use transform="matrix(0.010850694444444444,0,0,0.010850694444444444,0,0)" xlink:href="#aO"/><use transform="matrix(0.010850694444444444,0,0,0.010850694444444444,16.514756944444443,0)" xlink:href="#al"/><use transform="matrix(0.010850694444444444,0,0,0.010850694444444444,32.74739583333333,0)" xlink:href="#ar"/></g><g id="J"><use transform="matrix(0.010850694444444444,0,0,0.010850694444444444,0,0)" xlink:href="#ar"/><use transform="matrix(0.010850694444444444,0,0,0.010850694444444444,14.073350694444445,0)" xlink:href="#Z"/><use transform="matrix(0.010850694444444444,0,0,0.010850694444444444,27.39800347222222,0)" xlink:href="#aw"/></g><g id="K"><use transform="matrix(0.010850694444444444,0,0,0.010850694444444444,0,0)" xlink:href="#al"/><use transform="matrix(0.010850694444444444,0,0,0.010850694444444444,16.23263888888889,0)" xlink:href="#am"/><use transform="matrix(0.010850694444444444,0,0,0.010850694444444444,29.37282986111111,0)" xlink:href="#X"/><use transform="matrix(0.010850694444444444,0,0,0.010850694444444444,41.10243055555556,0)" xlink:href="#aa"/><use transform="matrix(0.010850694444444444,0,0,0.010850694444444444,48.15538194444445,0)" xlink:href="#Z"/><use transform="matrix(0.010850694444444444,0,0,0.010850694444444444,61.48003472222223,0)" xlink:href="#an"/><use transform="matrix(0.010850694444444444,0,0,0.010850694444444444,80.94618055555556,0)" xlink:href="#ac"/><use transform="matrix(0.010850694444444444,0,0,0.010850694444444444,93.90190972222221,0)" xlink:href="#ad"/><use transform="matrix(0.010850694444444444,0,0,0.010850694444444444,102.2677951388889,0)" xlink:href="#ao"/></g><g id="L"><use transform="matrix(0.010850694444444444,0,0,0.010850694444444444,0,0)" xlink:href="#al"/><use transform="matrix(0.010850694444444444,0,0,0.010850694444444444,16.23263888888889,0)" xlink:href="#am"/><use transform="matrix(0.010850694444444444,0,0,0.010850694444444444,29.37282986111111,0)" xlink:href="#X"/><use transform="matrix(0.010850694444444444,0,0,0.010850694444444444,41.10243055555556,0)" xlink:href="#aa"/><use transform="matrix(0.010850694444444444,0,0,0.010850694444444444,48.15538194444445,0)" xlink:href="#Z"/><use transform="matrix(0.010850694444444444,0,0,0.010850694444444444,61.48003472222223,0)" xlink:href="#an"/><use transform="matrix(0.010850694444444444,0,0,0.010850694444444444,80.94618055555556,0)" xlink:href="#ac"/><use transform="matrix(0.010850694444444444,0,0,0.010850694444444444,93.90190972222221,0)" xlink:href="#ad"/><use transform="matrix(0.010850694444444444,0,0,0.010850694444444444,102.2677951388889,0)" xlink:href="#ao"/></g><g id="M"><use transform="matrix(0.010850694444444444,0,0,0.010850694444444444,0,0)" xlink:href="#al"/><use transform="matrix(0.010850694444444444,0,0,0.010850694444444444,16.23263888888889,0)" xlink:href="#ar"/><use transform="matrix(0.010850694444444444,0,0,0.010850694444444444,30.42534722222222,0)" xlink:href="#aM"/></g><g id="N"><use transform="matrix(0.010850694444444444,0,0,0.010850694444444444,0,0)" xlink:href="#ay"/><use transform="matrix(0.010850694444444444,0,0,0.010850694444444444,20.768229166666668,0)" xlink:href="#Z"/><use transform="matrix(0.010850694444444444,0,0,0.010850694444444444,34.09288194444444,0)" xlink:href="#ad"/><use transform="matrix(0.010850694444444444,0,0,0.010850694444444444,42.80598958333333,0)" xlink:href="#aL"/><use transform="matrix(0.010850694444444444,0,0,0.010850694444444444,54.50303819444444,0)" xlink:href="#ac"/><use transform="matrix(0.010850694444444444,0,0,0.010850694444444444,67.45876736111111,0)" xlink:href="#ad"/></g><path d="M600 0L52-1490h200c166 485 304 806 458 1336 156-533 285-846 449-1336h202L819 0H600" id="aP"/><g id="O"><use transform="matrix(0.010850694444444444,0,0,0.010850694444444444,0,0)" xlink:href="#V"/><use transform="matrix(0.010850694444444444,0,0,0.010850694444444444,14.181857638888888,0)" xlink:href="#am"/><use transform="matrix(0.010850694444444444,0,0,0.010850694444444444,27.32204861111111,0)" xlink:href="#aD"/><use transform="matrix(0.010850694444444444,0,0,0.010850694444444444,40.92881944444444,0)" xlink:href="#ac"/><use transform="matrix(0.010850694444444444,0,0,0.010850694444444444,52.756076388888886,0)" xlink:href="#aP"/><use transform="matrix(0.010850694444444444,0,0,0.010850694444444444,68.08810763888889,0)" xlink:href="#ae"/><use transform="matrix(0.010850694444444444,0,0,0.010850694444444444,73.47005208333333,0)" xlink:href="#ad"/><use transform="matrix(0.010850694444444444,0,0,0.010850694444444444,82.18315972222223,0)" xlink:href="#aa"/></g><g id="P"><use transform="matrix(0.010850694444444444,0,0,0.010850694444444444,0,0)" xlink:href="#aP"/><use transform="matrix(0.010850694444444444,0,0,0.010850694444444444,15.33203125,0)" xlink:href="#Y"/></g><g id="Q"><use transform="matrix(0.010850694444444444,0,0,0.010850694444444444,0,0)" xlink:href="#aN"/><use transform="matrix(0.010850694444444444,0,0,0.010850694444444444,16.57986111111111,0)" xlink:href="#ar"/><use transform="matrix(0.010850694444444444,0,0,0.010850694444444444,30.772569444444443,0)" xlink:href="#aM"/></g><g id="R"><use transform="matrix(0.010850694444444444,0,0,0.010850694444444444,0,0)" xlink:href="#al"/><use transform="matrix(0.010850694444444444,0,0,0.010850694444444444,16.23263888888889,0)" xlink:href="#ab"/><use transform="matrix(0.010850694444444444,0,0,0.010850694444444444,29.37282986111111,0)" xlink:href="#ae"/><use transform="matrix(0.010850694444444444,0,0,0.010850694444444444,34.75477430555556,0)" xlink:href="#ak"/><use transform="matrix(0.010850694444444444,0,0,0.010850694444444444,40.13671875,0)" xlink:href="#aw"/><use transform="matrix(0.010850694444444444,0,0,0.010850694444444444,53.74348958333333,0)" xlink:href="#ao"/></g><g id="S"><use transform="matrix(0.010850694444444444,0,0,0.010850694444444444,0,0)" xlink:href="#al"/><use transform="matrix(0.010850694444444444,0,0,0.010850694444444444,16.23263888888889,0)" xlink:href="#ab"/><use transform="matrix(0.010850694444444444,0,0,0.010850694444444444,29.37282986111111,0)" xlink:href="#ae"/><use transform="matrix(0.010850694444444444,0,0,0.010850694444444444,34.75477430555556,0)" xlink:href="#ak"/><use transform="matrix(0.010850694444444444,0,0,0.010850694444444444,40.13671875,0)" xlink:href="#aw"/><use transform="matrix(0.010850694444444444,0,0,0.010850694444444444,53.74348958333333,0)" xlink:href="#ao"/></g><g id="T"><use transform="matrix(0.010850694444444444,0,0,0.010850694444444444,0,0)" xlink:href="#aN"/><use transform="matrix(0.010850694444444444,0,0,0.010850694444444444,16.57986111111111,0)" xlink:href="#ae"/><use transform="matrix(0.010850694444444444,0,0,0.010850694444444444,21.961805555555557,0)" xlink:href="#aa"/></g><g id="U"><use transform="matrix(0.010850694444444444,0,0,0.010850694444444444,0,0)" xlink:href="#ag"/><use transform="matrix(0.010850694444444444,0,0,0.010850694444444444,13.975694444444445,0)" xlink:href="#ac"/><use transform="matrix(0.010850694444444444,0,0,0.010850694444444444,26.931423611111104,0)" xlink:href="#af"/><use transform="matrix(0.010850694444444444,0,0,0.010850694444444444,40.53819444444444,0)" xlink:href="#Z"/><use transform="matrix(0.010850694444444444,0,0,0.010850694444444444,53.86284722222222,0)" xlink:href="#X"/><use transform="matrix(0.010850694444444444,0,0,0.010850694444444444,65.59244791666667,0)" xlink:href="#ae"/><use transform="matrix(0.010850694444444444,0,0,0.010850694444444444,70.97439236111111,0)" xlink:href="#aa"/><use transform="matrix(0.010850694444444444,0,0,0.010850694444444444,78.02734375,0)" xlink:href="#Z"/><use transform="matrix(0.010850694444444444,0,0,0.010850694444444444,91.35199652777777,0)" xlink:href="#ad"/><use transform="matrix(0.010850694444444444,0,0,0.010850694444444444,100.06510416666666,0)" xlink:href="#aK"/></g></defs></g></svg>